<mxfile modified="2021-03-16T09:53:52.316Z" host="app.diagrams.net" agent="5.0 (Macintosh; Intel Mac OS X 10_15_7) AppleWebKit/537.36 (KHTML, like Gecko) Chrome/89.0.4389.82 Safari/537.36" etag="DPIGpNqY_bg0wlROwvv-" version="14.4.4" type="github">
  <diagram id="d1ab7348-05c3-a1e3-ca4d-12c340fd6b49" name="Page-1">
    <mxGraphModel dx="1426" dy="794" grid="1" gridSize="10" guides="1" tooltips="1" connect="1" arrows="1" fold="1" page="1" pageScale="1" pageWidth="1169" pageHeight="827" background="#ffffff" math="0" shadow="0">
      <root>
        <mxCell id="0" />
        <mxCell id="1" parent="0" />
        <mxCell id="2" value="&lt;b&gt;EU&amp;nbsp;&lt;/b&gt;IVDR" style="fillColor=#F6F6F6;strokeColor=none;shadow=0;gradientColor=none;fontSize=14;align=left;spacing=10;fontColor=#717171;9E9E9E;verticalAlign=top;spacingTop=-4;fontStyle=0;spacingLeft=40;html=1;" parent="1" vertex="1">
          <mxGeometry x="228.5" y="45" width="571.5" height="1285" as="geometry" />
        </mxCell>
        <mxCell id="371" value="Streaming" style="rounded=1;absoluteArcSize=1;arcSize=2;html=1;strokeColor=#4284F3;gradientColor=none;shadow=0;dashed=1;fontSize=12;fontColor=#9E9E9E;align=left;verticalAlign=top;spacing=10;spacingTop=-4;fillColor=none;dashPattern=1 2;strokeWidth=2;" parent="1" vertex="1">
          <mxGeometry x="448" y="1784" width="170" height="170" as="geometry" />
        </mxCell>
        <mxCell id="ad4-t8fsiWjWlTMB4g6z-441" style="edgeStyle=orthogonalEdgeStyle;rounded=1;orthogonalLoop=1;jettySize=auto;html=1;exitX=0.5;exitY=1;exitDx=0;exitDy=0;entryX=0.319;entryY=0.002;entryDx=0;entryDy=0;entryPerimeter=0;strokeColor=#007FFF;strokeWidth=3;endArrow=blockThin;endFill=1;endSize=2;" edge="1" parent="1" source="341" target="ad4-t8fsiWjWlTMB4g6z-426">
          <mxGeometry relative="1" as="geometry" />
        </mxCell>
        <mxCell id="ad4-t8fsiWjWlTMB4g6z-444" style="edgeStyle=orthogonalEdgeStyle;rounded=1;orthogonalLoop=1;jettySize=auto;html=1;exitX=1;exitY=0.5;exitDx=0;exitDy=0;entryX=0;entryY=0.25;entryDx=0;entryDy=0;entryPerimeter=0;endArrow=blockThin;endFill=1;endSize=2;strokeColor=#007FFF;strokeWidth=3;" edge="1" parent="1" source="341" target="ad4-t8fsiWjWlTMB4g6z-443">
          <mxGeometry relative="1" as="geometry" />
        </mxCell>
        <mxCell id="341" value="产品概念&amp;amp;用户需求" style="rounded=1;absoluteArcSize=1;arcSize=2;html=1;strokeColor=#4284F3;gradientColor=none;shadow=0;dashed=1;fontSize=12;fontColor=#9E9E9E;align=left;verticalAlign=top;spacing=10;spacingTop=-4;fillColor=none;dashPattern=1 2;strokeWidth=2;" parent="1" vertex="1">
          <mxGeometry x="100.5" y="95" width="449.5" height="275" as="geometry" />
        </mxCell>
        <mxCell id="355" value="Batch" style="rounded=1;absoluteArcSize=1;arcSize=2;html=1;strokeColor=#4284F3;gradientColor=none;shadow=0;dashed=1;fontSize=12;fontColor=#9E9E9E;align=left;verticalAlign=top;spacing=10;spacingTop=-4;fillColor=none;dashPattern=1 2;strokeWidth=2;" parent="1" vertex="1">
          <mxGeometry x="120" y="1694" width="308" height="210" as="geometry" />
        </mxCell>
        <mxCell id="401" style="edgeStyle=orthogonalEdgeStyle;rounded=0;html=1;dashed=0;labelBackgroundColor=none;startArrow=none;startFill=0;startSize=4;endArrow=blockThin;endFill=1;endSize=4;strokeColor=#4284F3;strokeWidth=2;fontSize=12;" parent="1" source="356" target="365" edge="1">
          <mxGeometry relative="1" as="geometry">
            <Array as="points">
              <mxPoint x="248" y="1759" />
              <mxPoint x="248" y="1759" />
            </Array>
          </mxGeometry>
        </mxCell>
        <mxCell id="356" value="On-Premises&lt;br&gt;&lt;font style=&quot;font-size: 10px&quot;&gt;Databases&lt;/font&gt;&lt;br&gt;" style="rounded=1;absoluteArcSize=1;arcSize=2;html=1;strokeColor=none;gradientColor=none;shadow=0;dashed=0;fontSize=12;fontColor=#9E9E9E;align=left;verticalAlign=top;spacing=10;spacingTop=-4;fillColor=#EFEBE9;" parent="1" vertex="1">
          <mxGeometry x="130" y="1722.5" width="110" height="130" as="geometry" />
        </mxCell>
        <mxCell id="357" value="" style="strokeColor=#dddddd;fillColor=#ffffff;shadow=1;strokeWidth=1;rounded=1;absoluteArcSize=1;arcSize=2;labelPosition=center;verticalLabelPosition=middle;align=center;verticalAlign=bottom;spacingLeft=0;fontColor=#999999;fontSize=12;whiteSpace=wrap;spacingBottom=2;html=1;" parent="1" vertex="1">
          <mxGeometry x="150" y="1771.5" width="70" height="69" as="geometry" />
        </mxCell>
        <mxCell id="358" value="" style="dashed=0;connectable=0;html=1;fillColor=#757575;strokeColor=none;shape=mxgraph.gcp2.database;part=1;" parent="357" vertex="1">
          <mxGeometry x="0.5" width="50" height="45" relative="1" as="geometry">
            <mxPoint x="-25" y="12.5" as="offset" />
          </mxGeometry>
        </mxCell>
        <mxCell id="359" value="" style="shape=mxgraph.gcp2.doubleRect;strokeColor=#dddddd;fillColor=#ffffff;shadow=1;strokeWidth=1;fontSize=12;fontColor=#9E9E9E;align=center;html=1;" parent="1" vertex="1">
          <mxGeometry x="228.5" y="107" width="160" height="83" as="geometry" />
        </mxCell>
        <mxCell id="360" value="&lt;font color=&quot;#000000&quot;&gt;用于检测和诊断&lt;br&gt;的疾病是什么?&lt;br&gt;&lt;/font&gt;&lt;span style=&quot;color: rgb(0 , 0 , 0)&quot;&gt;&lt;br&gt;功能及相关信息&lt;/span&gt;&lt;font color=&quot;#000000&quot;&gt;&lt;br&gt;&lt;/font&gt;" style="dashed=0;connectable=0;html=1;fillColor=#5184F3;strokeColor=none;shape=mxgraph.gcp2.hexIcon;prIcon=compute_engine;part=1;labelPosition=right;verticalLabelPosition=middle;align=left;verticalAlign=middle;spacingLeft=5;fontColor=#999999;fontSize=12;" parent="359" vertex="1">
          <mxGeometry y="0.5" width="44" height="39" relative="1" as="geometry">
            <mxPoint x="5" y="-19.5" as="offset" />
          </mxGeometry>
        </mxCell>
        <mxCell id="361" value="" style="strokeColor=#dddddd;fillColor=#ffffff;shadow=1;strokeWidth=1;rounded=1;absoluteArcSize=1;arcSize=2;fontSize=12;fontColor=#9E9E9E;align=center;html=1;" parent="1" vertex="1">
          <mxGeometry x="230" y="260" width="300" height="100" as="geometry" />
        </mxCell>
        <mxCell id="362" value="&lt;font color=&quot;#000000&quot;&gt;IVD类型及分类&lt;br&gt;&lt;/font&gt;床旁检测&lt;br&gt;自测&lt;br&gt;伴随诊断&lt;br&gt;诊断设备&lt;br&gt;软件" style="dashed=0;connectable=0;html=1;fillColor=#5184F3;strokeColor=none;shape=mxgraph.gcp2.hexIcon;prIcon=cloud_pubsub;part=1;labelPosition=right;verticalLabelPosition=middle;align=left;verticalAlign=top;spacingLeft=5;fontColor=#999999;fontSize=12;spacingTop=-8;" parent="361" vertex="1">
          <mxGeometry width="44" height="39" relative="1" as="geometry">
            <mxPoint x="5" y="7" as="offset" />
          </mxGeometry>
        </mxCell>
        <mxCell id="ad4-t8fsiWjWlTMB4g6z-419" value="Class A, B, C, D" style="text;html=1;strokeColor=none;fillColor=none;align=center;verticalAlign=middle;whiteSpace=wrap;rounded=0;" vertex="1" parent="361">
          <mxGeometry x="139" y="30" width="151" height="20" as="geometry" />
        </mxCell>
        <mxCell id="ad4-t8fsiWjWlTMB4g6z-420" value="Article 47, Annex VIII" style="rounded=1;fillColor=#0057D8;strokeColor=none;html=1;fontColor=#ffffff;align=center;verticalAlign=middle;fontStyle=0;fontSize=12" vertex="1" parent="361">
          <mxGeometry x="150" y="50" width="140" height="33" as="geometry" />
        </mxCell>
        <mxCell id="363" value="" style="strokeColor=#dddddd;fillColor=#ffffff;shadow=1;strokeWidth=1;rounded=1;absoluteArcSize=1;arcSize=2;fontSize=12;fontColor=#9E9E9E;align=center;html=1;" parent="1" vertex="1">
          <mxGeometry x="399" y="110.5" width="131" height="43" as="geometry" />
        </mxCell>
        <mxCell id="364" value="&lt;font color=&quot;#000000&quot;&gt;&lt;br&gt;预期使用者&lt;/font&gt;" style="dashed=0;connectable=0;html=1;fillColor=#5184F3;strokeColor=none;shape=mxgraph.gcp2.hexIcon;prIcon=cloud_dataflow;part=1;labelPosition=right;verticalLabelPosition=middle;align=left;verticalAlign=top;spacingLeft=5;fontColor=#999999;fontSize=12;spacingTop=-8;" parent="363" vertex="1">
          <mxGeometry width="44" height="39" relative="1" as="geometry">
            <mxPoint x="5" y="7" as="offset" />
          </mxGeometry>
        </mxCell>
        <mxCell id="403" style="edgeStyle=orthogonalEdgeStyle;rounded=0;html=1;dashed=0;labelBackgroundColor=none;startArrow=none;startFill=0;startSize=4;endArrow=blockThin;endFill=1;endSize=4;strokeColor=#4284F3;strokeWidth=2;fontSize=12;" parent="1" source="365" target="371" edge="1">
          <mxGeometry relative="1" as="geometry">
            <Array as="points">
              <mxPoint x="518" y="1754" />
            </Array>
          </mxGeometry>
        </mxCell>
        <mxCell id="404" style="edgeStyle=orthogonalEdgeStyle;rounded=0;html=1;dashed=0;labelBackgroundColor=none;startArrow=none;startFill=0;startSize=4;endArrow=blockThin;endFill=1;endSize=4;strokeColor=#4284F3;strokeWidth=2;fontSize=12;" parent="1" source="365" target="369" edge="1">
          <mxGeometry relative="1" as="geometry">
            <Array as="points">
              <mxPoint x="518" y="1754" />
            </Array>
          </mxGeometry>
        </mxCell>
        <mxCell id="365" value="" style="strokeColor=#dddddd;fillColor=#ffffff;shadow=1;strokeWidth=1;rounded=1;absoluteArcSize=1;arcSize=2;fontSize=12;fontColor=#9E9E9E;align=center;html=1;" parent="1" vertex="1">
          <mxGeometry x="268" y="1724" width="150" height="70" as="geometry" />
        </mxCell>
        <mxCell id="366" value="&lt;font color=&quot;#000000&quot;&gt;ETL&lt;/font&gt;&lt;br&gt;Cloud Dataflow&lt;hr&gt;&lt;font style=&quot;font-size: 11px&quot;&gt;Transform Data&lt;/font&gt;" style="dashed=0;connectable=0;html=1;fillColor=#5184F3;strokeColor=none;shape=mxgraph.gcp2.hexIcon;prIcon=cloud_dataflow;part=1;labelPosition=right;verticalLabelPosition=middle;align=left;verticalAlign=top;spacingLeft=5;fontColor=#999999;fontSize=12;spacingTop=-8;" parent="365" vertex="1">
          <mxGeometry width="44" height="39" relative="1" as="geometry">
            <mxPoint x="5" y="7" as="offset" />
          </mxGeometry>
        </mxCell>
        <mxCell id="402" style="edgeStyle=orthogonalEdgeStyle;rounded=0;html=1;exitX=0.5;exitY=0;dashed=0;labelBackgroundColor=none;startArrow=none;startFill=0;startSize=4;endArrow=blockThin;endFill=1;endSize=4;strokeColor=#4284F3;strokeWidth=2;fontSize=12;" parent="1" source="367" target="365" edge="1">
          <mxGeometry relative="1" as="geometry" />
        </mxCell>
        <mxCell id="367" value="" style="strokeColor=#dddddd;fillColor=#ffffff;shadow=1;strokeWidth=1;rounded=1;absoluteArcSize=1;arcSize=2;fontSize=12;fontColor=#9E9E9E;align=center;html=1;" parent="1" vertex="1">
          <mxGeometry x="268" y="1834" width="150" height="60" as="geometry" />
        </mxCell>
        <mxCell id="368" value="&lt;font color=&quot;#000000&quot;&gt;Cloud Data&lt;/font&gt;&lt;br&gt;Cloud Storage" style="dashed=0;connectable=0;html=1;fillColor=#5184F3;strokeColor=none;shape=mxgraph.gcp2.hexIcon;prIcon=cloud_storage;part=1;labelPosition=right;verticalLabelPosition=middle;align=left;verticalAlign=middle;spacingLeft=5;fontColor=#999999;fontSize=12;" parent="367" vertex="1">
          <mxGeometry y="0.5" width="44" height="39" relative="1" as="geometry">
            <mxPoint x="5" y="-19.5" as="offset" />
          </mxGeometry>
        </mxCell>
        <mxCell id="369" value="" style="strokeColor=#dddddd;fillColor=#ffffff;shadow=1;strokeWidth=1;rounded=1;absoluteArcSize=1;arcSize=2;fontSize=12;fontColor=#9E9E9E;align=center;html=1;" parent="1" vertex="1">
          <mxGeometry x="452.5" y="1654" width="163" height="70" as="geometry" />
        </mxCell>
        <mxCell id="370" value="&lt;font color=&quot;#000000&quot;&gt;Processed Events&lt;/font&gt;&lt;br&gt;Cloud Bigtable&lt;hr&gt;&lt;font style=&quot;font-size: 11px&quot;&gt;Events Time Series&lt;/font&gt;" style="dashed=0;connectable=0;html=1;fillColor=#5184F3;strokeColor=none;shape=mxgraph.gcp2.hexIcon;prIcon=cloud_bigtable;part=1;labelPosition=right;verticalLabelPosition=middle;align=left;verticalAlign=top;spacingLeft=5;fontColor=#999999;fontSize=12;spacingTop=-8;" parent="369" vertex="1">
          <mxGeometry width="44" height="39" relative="1" as="geometry">
            <mxPoint x="5" y="7" as="offset" />
          </mxGeometry>
        </mxCell>
        <mxCell id="372" value="" style="strokeColor=#dddddd;fillColor=#ffffff;shadow=1;strokeWidth=1;rounded=1;absoluteArcSize=1;arcSize=2;fontSize=12;fontColor=#9E9E9E;align=center;html=1;" parent="1" vertex="1">
          <mxGeometry x="459" y="1814" width="150" height="60" as="geometry" />
        </mxCell>
        <mxCell id="373" value="&lt;font color=&quot;#000000&quot;&gt;Rules Engine&lt;/font&gt;&lt;br&gt;Cloud Dataflow" style="dashed=0;connectable=0;html=1;fillColor=#5184F3;strokeColor=none;shape=mxgraph.gcp2.hexIcon;prIcon=cloud_dataflow;part=1;labelPosition=right;verticalLabelPosition=middle;align=left;verticalAlign=middle;spacingLeft=5;fontColor=#999999;fontSize=12;" parent="372" vertex="1">
          <mxGeometry y="0.5" width="44" height="39" relative="1" as="geometry">
            <mxPoint x="5" y="-19.5" as="offset" />
          </mxGeometry>
        </mxCell>
        <mxCell id="374" value="" style="strokeColor=#dddddd;fillColor=#ffffff;shadow=1;strokeWidth=1;rounded=1;absoluteArcSize=1;arcSize=2;fontSize=12;fontColor=#9E9E9E;align=center;html=1;" parent="1" vertex="1">
          <mxGeometry x="459" y="1884" width="150" height="60" as="geometry" />
        </mxCell>
        <mxCell id="375" value="&lt;font color=&quot;#000000&quot;&gt;Rules Engine&lt;/font&gt;&lt;br&gt;Cloud Dataproc" style="dashed=0;connectable=0;html=1;fillColor=#5184F3;strokeColor=none;shape=mxgraph.gcp2.hexIcon;prIcon=cloud_dataproc;part=1;labelPosition=right;verticalLabelPosition=middle;align=left;verticalAlign=middle;spacingLeft=5;fontColor=#999999;fontSize=12;" parent="374" vertex="1">
          <mxGeometry y="0.5" width="44" height="39" relative="1" as="geometry">
            <mxPoint x="5" y="-19.5" as="offset" />
          </mxGeometry>
        </mxCell>
        <mxCell id="408" style="edgeStyle=orthogonalEdgeStyle;rounded=0;html=1;dashed=0;labelBackgroundColor=none;startArrow=none;startFill=0;startSize=4;endArrow=blockThin;endFill=1;endSize=4;strokeColor=#4284F3;strokeWidth=2;fontSize=12;" parent="1" source="376" target="388" edge="1">
          <mxGeometry relative="1" as="geometry">
            <Array as="points">
              <mxPoint x="868" y="1390" />
              <mxPoint x="868" y="1390" />
            </Array>
          </mxGeometry>
        </mxCell>
        <mxCell id="376" value="" style="strokeColor=#dddddd;fillColor=#ffffff;shadow=1;strokeWidth=1;rounded=1;absoluteArcSize=1;arcSize=2;fontSize=12;fontColor=#9E9E9E;align=center;html=1;" parent="1" vertex="1">
          <mxGeometry x="660" y="1360" width="158" height="60" as="geometry" />
        </mxCell>
        <mxCell id="377" value="&lt;font color=&quot;#000000&quot;&gt;Push to Devices&lt;/font&gt;&lt;br&gt;App Engine" style="dashed=0;connectable=0;html=1;fillColor=#5184F3;strokeColor=none;shape=mxgraph.gcp2.hexIcon;prIcon=app_engine;part=1;labelPosition=right;verticalLabelPosition=middle;align=left;verticalAlign=middle;spacingLeft=5;fontColor=#999999;fontSize=12;" parent="376" vertex="1">
          <mxGeometry y="0.5" width="44" height="39" relative="1" as="geometry">
            <mxPoint x="5" y="-19.5" as="offset" />
          </mxGeometry>
        </mxCell>
        <mxCell id="409" style="edgeStyle=orthogonalEdgeStyle;rounded=0;html=1;dashed=0;labelBackgroundColor=none;startArrow=none;startFill=0;startSize=4;endArrow=blockThin;endFill=1;endSize=4;strokeColor=#4284F3;strokeWidth=2;fontSize=12;" parent="1" source="380" target="376" edge="1">
          <mxGeometry relative="1" as="geometry" />
        </mxCell>
        <mxCell id="410" style="edgeStyle=orthogonalEdgeStyle;rounded=0;html=1;dashed=0;labelBackgroundColor=none;startArrow=none;startFill=0;startSize=4;endArrow=blockThin;endFill=1;endSize=4;strokeColor=#4284F3;strokeWidth=2;fontSize=12;" parent="1" source="380" target="382" edge="1">
          <mxGeometry relative="1" as="geometry">
            <Array as="points">
              <mxPoint x="739" y="1540" />
              <mxPoint x="739" y="1540" />
            </Array>
          </mxGeometry>
        </mxCell>
        <mxCell id="380" value="" style="strokeColor=#dddddd;fillColor=#ffffff;shadow=1;strokeWidth=1;rounded=1;absoluteArcSize=1;arcSize=2;fontSize=12;fontColor=#9E9E9E;align=center;html=1;" parent="1" vertex="1">
          <mxGeometry x="660" y="1445" width="158" height="70" as="geometry" />
        </mxCell>
        <mxCell id="381" value="&lt;font color=&quot;#000000&quot;&gt;Messaging&lt;/font&gt;&lt;br&gt;Cloud Pub/Sub&lt;hr&gt;&lt;font style=&quot;font-size: 11px&quot;&gt;Rules Actions&lt;/font&gt;" style="dashed=0;connectable=0;html=1;fillColor=#5184F3;strokeColor=none;shape=mxgraph.gcp2.hexIcon;prIcon=cloud_pubsub;part=1;labelPosition=right;verticalLabelPosition=middle;align=left;verticalAlign=top;spacingLeft=5;fontColor=#999999;fontSize=12;spacingTop=-8;" parent="380" vertex="1">
          <mxGeometry width="44" height="39" relative="1" as="geometry">
            <mxPoint x="5" y="7" as="offset" />
          </mxGeometry>
        </mxCell>
        <mxCell id="382" value="" style="shape=mxgraph.gcp2.doubleRect;strokeColor=#dddddd;fillColor=#ffffff;shadow=1;strokeWidth=1;fontSize=12;fontColor=#9E9E9E;align=center;html=1;" parent="1" vertex="1">
          <mxGeometry x="660" y="1546" width="168" height="68" as="geometry" />
        </mxCell>
        <mxCell id="383" value="&lt;font color=&quot;#000000&quot;&gt;Cloud Apps&lt;/font&gt;&lt;br&gt;Compute Engine" style="dashed=0;connectable=0;html=1;fillColor=#5184F3;strokeColor=none;shape=mxgraph.gcp2.hexIcon;prIcon=compute_engine;part=1;labelPosition=right;verticalLabelPosition=middle;align=left;verticalAlign=middle;spacingLeft=5;fontColor=#999999;fontSize=12;" parent="382" vertex="1">
          <mxGeometry y="0.5" width="44" height="39" relative="1" as="geometry">
            <mxPoint x="5" y="-19.5" as="offset" />
          </mxGeometry>
        </mxCell>
        <mxCell id="411" style="edgeStyle=orthogonalEdgeStyle;rounded=0;html=1;dashed=0;labelBackgroundColor=none;startArrow=none;startFill=0;startSize=4;endArrow=blockThin;endFill=1;endSize=4;strokeColor=#4284F3;strokeWidth=2;fontSize=12;" parent="1" source="384" target="391" edge="1">
          <mxGeometry relative="1" as="geometry" />
        </mxCell>
        <mxCell id="412" style="edgeStyle=orthogonalEdgeStyle;rounded=0;html=1;dashed=0;labelBackgroundColor=none;startArrow=none;startFill=0;startSize=4;endArrow=blockThin;endFill=1;endSize=4;strokeColor=#4284F3;strokeWidth=2;fontSize=12;" parent="1" source="384" target="386" edge="1">
          <mxGeometry relative="1" as="geometry">
            <Array as="points">
              <mxPoint x="739" y="1760" />
              <mxPoint x="739" y="1760" />
            </Array>
          </mxGeometry>
        </mxCell>
        <mxCell id="384" value="" style="strokeColor=#dddddd;fillColor=#ffffff;shadow=1;strokeWidth=1;rounded=1;absoluteArcSize=1;arcSize=2;fontSize=12;fontColor=#9E9E9E;align=center;html=1;" parent="1" vertex="1">
          <mxGeometry x="660" y="1660" width="157" height="70" as="geometry" />
        </mxCell>
        <mxCell id="385" value="&lt;font color=&quot;#000000&quot;&gt;Data Warehouse&lt;/font&gt;&lt;br&gt;BigQuery&lt;hr&gt;&lt;font style=&quot;font-size: 11px&quot;&gt;Execution Results&lt;/font&gt;" style="dashed=0;connectable=0;html=1;fillColor=#5184F3;strokeColor=none;shape=mxgraph.gcp2.hexIcon;prIcon=bigquery;part=1;labelPosition=right;verticalLabelPosition=middle;align=left;verticalAlign=top;spacingLeft=5;fontColor=#999999;fontSize=12;spacingTop=-8;" parent="384" vertex="1">
          <mxGeometry width="44" height="39" relative="1" as="geometry">
            <mxPoint x="5" y="7" as="offset" />
          </mxGeometry>
        </mxCell>
        <mxCell id="386" value="" style="strokeColor=#dddddd;fillColor=#ffffff;shadow=1;strokeWidth=1;rounded=1;absoluteArcSize=1;arcSize=2;fontSize=12;fontColor=#9E9E9E;align=center;html=1;" parent="1" vertex="1">
          <mxGeometry x="660" y="1770" width="158" height="60" as="geometry" />
        </mxCell>
        <mxCell id="387" value="&lt;font color=&quot;#000000&quot;&gt;Data Analysis&lt;/font&gt;&lt;br&gt;Cloud Datalab" style="dashed=0;connectable=0;html=1;fillColor=#5184F3;strokeColor=none;shape=mxgraph.gcp2.hexIcon;prIcon=cloud_datalab;part=1;labelPosition=right;verticalLabelPosition=middle;align=left;verticalAlign=middle;spacingLeft=5;fontColor=#999999;fontSize=12;" parent="386" vertex="1">
          <mxGeometry y="0.5" width="44" height="39" relative="1" as="geometry">
            <mxPoint x="5" y="-19.5" as="offset" />
          </mxGeometry>
        </mxCell>
        <mxCell id="388" value="Mobile Devices&lt;br&gt;&lt;font style=&quot;font-size: 10px&quot;&gt;Push Notification&lt;/font&gt;&lt;br&gt;" style="rounded=1;absoluteArcSize=1;arcSize=2;html=1;strokeColor=none;gradientColor=none;shadow=0;dashed=0;fontSize=12;fontColor=#9E9E9E;align=left;verticalAlign=top;spacing=10;spacingTop=-4;fillColor=#F1F8E9;" parent="1" vertex="1">
          <mxGeometry x="878" y="1340" width="110" height="130" as="geometry" />
        </mxCell>
        <mxCell id="389" value="" style="strokeColor=#dddddd;fillColor=#ffffff;shadow=1;strokeWidth=1;rounded=1;absoluteArcSize=1;arcSize=2;labelPosition=center;verticalLabelPosition=middle;align=center;verticalAlign=bottom;spacingLeft=0;fontColor=#999999;fontSize=12;whiteSpace=wrap;spacingBottom=2;html=1;" parent="1" vertex="1">
          <mxGeometry x="898" y="1385" width="70" height="70" as="geometry" />
        </mxCell>
        <mxCell id="390" value="" style="dashed=0;connectable=0;html=1;fillColor=#757575;strokeColor=none;shape=mxgraph.gcp2.mobile_devices;part=1;" parent="389" vertex="1">
          <mxGeometry x="0.5" width="50" height="36.5" relative="1" as="geometry">
            <mxPoint x="-25" y="16.75" as="offset" />
          </mxGeometry>
        </mxCell>
        <mxCell id="391" value="Report &amp;amp; Share&lt;br&gt;&lt;font style=&quot;font-size: 10px&quot;&gt;Business Analysis&lt;/font&gt;&lt;br&gt;" style="rounded=1;absoluteArcSize=1;arcSize=2;html=1;strokeColor=none;gradientColor=none;shadow=0;dashed=0;fontSize=12;fontColor=#9E9E9E;align=left;verticalAlign=top;spacing=10;spacingTop=-4;fillColor=#F3E5F5;" parent="1" vertex="1">
          <mxGeometry x="878" y="1631" width="170" height="128" as="geometry" />
        </mxCell>
        <mxCell id="392" value="" style="strokeColor=#dddddd;fillColor=#ffffff;shadow=1;strokeWidth=1;rounded=1;absoluteArcSize=1;arcSize=2;labelPosition=center;verticalLabelPosition=middle;align=center;verticalAlign=bottom;spacingLeft=0;fontColor=#999999;fontSize=12;whiteSpace=wrap;spacingBottom=2;html=1;" parent="1" vertex="1">
          <mxGeometry x="888" y="1678" width="70" height="70" as="geometry" />
        </mxCell>
        <mxCell id="393" value="" style="dashed=0;connectable=0;html=1;fillColor=#757575;strokeColor=none;shape=mxgraph.gcp2.report;part=1;" parent="392" vertex="1">
          <mxGeometry x="0.5" width="50" height="50" relative="1" as="geometry">
            <mxPoint x="-25" y="10" as="offset" />
          </mxGeometry>
        </mxCell>
        <mxCell id="394" value="" style="strokeColor=#dddddd;fillColor=#ffffff;shadow=1;strokeWidth=1;rounded=1;absoluteArcSize=1;arcSize=2;labelPosition=center;verticalLabelPosition=middle;align=center;verticalAlign=bottom;spacingLeft=0;fontColor=#999999;fontSize=12;whiteSpace=wrap;spacingBottom=2;html=1;" parent="1" vertex="1">
          <mxGeometry x="968" y="1678" width="70" height="70" as="geometry" />
        </mxCell>
        <mxCell id="395" value="" style="dashed=0;connectable=0;html=1;fillColor=#757575;strokeColor=none;shape=mxgraph.gcp2.users;part=1;" parent="394" vertex="1">
          <mxGeometry x="0.5" width="50" height="31.5" relative="1" as="geometry">
            <mxPoint x="-25" y="19.25" as="offset" />
          </mxGeometry>
        </mxCell>
        <mxCell id="ad4-t8fsiWjWlTMB4g6z-413" value="" style="shape=image;verticalLabelPosition=bottom;verticalAlign=top;imageAspect=0;aspect=fixed;image=data:image/png,iVBORw0KGgoAAAANSUhEUgAAA5gAAAH0CAMAAABvv3KHAAAAYFBMVEX////u7+/MzMzV1te2urw6Ojv29vcZS5S9vb1CQkLCw8YzMzPd3t/m5ufz5DVTU1QGPoyEhIRmZmZ4eHmzs7OZmZkJQZmhoaJCaaS+vF0nU5VZcId9m8Pj1kiNlH5kfKeY7WGDAAA6SklEQVR42uyd227cOhJFWyShIwgkMA8GBhgMMP//lyPei7p0S+2ISdxrPR07jjvw6e3addXjAQAAAAAAAAAAAAAAAAAAAAAAAAAAAAAAAAAAAAAAAAAAAAAAAAAAAAAAAAAAAAAAAAAAAAAAAAAAAAAAAAAAAAAAAAAAAAAAAAAAAAAAAAAAAAAAAAAAAAAAAAAAAAAAAAAAAAAAAAAAAAAAAAAAAAAAAAAAAAAAAAAAAAAAAAAAAAAAAB+OHu/9/nbkZwxwWTfz3cLX/JABLjJM6m5hmoEfM8A1lLlfmIofM8A1I2uMu12YxvKDBrhkZO8PZ8qYmfoPwHnGuYNmlJkmzCzAJZfpHj2EOTl+2AAncZPp0MoIwpz5aQOcTDDnLslfEKahmQlwVjFdOoxBmNNEMxPgZIKpH/2ESf0H4EyCaYwaOwpzopkJcCbB7OQuszAnmpkAJxJM9+gqTOo/AH9KghleKkVMmpkAz7Edx+TGOQuTyTyApwlm1/aFKyETMwvwLIbJhY+7FToKM0szE+CZLmvssneHMTUuL5jqPzQzAQ6VIhPM8XZ/qVQ1s2xmAhygjexgqq/bhfllq5ml/gOwizWyg6nNfHfep8w0PrKZpf4DsIczsvDjOowZLM5ZPQaamQBPdNlM4Aw9xnH85I9dAjVmFuCAoVnz6HJZJI7kDQ9F/QfgMF7KiKW7LGR6YXozO9HMBDiKl0IWts9dyTjELswszUyAY126Tv3+csGg7H9hZgFaXTrxYac59qTHWUyzU/8BELqU1nXutZCZhLm8tmMzE2AnXlopl17yKA5WmFmamQAxoWynbrTpNlCuagezTLPTzATY0WXPRenSJ1lCNGYWQOhwtXLlurpJJ9YxtaGZCVB8a9M9HDq3LLQ0szQzATyj8roU3nGYTWcrKQ7lZWNrqP8AupRC9EFLJJjj3bmm9b8K6m6J5swsQCz7SOPohSp3MNXdoUvZ/K9oK7PUf+CD08uNBlSzKP2wX/cvSg8izRTT7JhZ+Fwbu9albhal/ab07cL88sZZzBZYmpmAjW0XIPU637x/wSRcMGgGZeuQHsDnhctkH1e6nFpd3t+2iBcMqoNVVaQ0M+HzwmUqsshMzh/iUo1O+10wqPuYdTWTZiZ8ZnbZ3sALuhybjzsUYMK/xP8CEI0SnpkJH4nNl8/HRpdtwcX1mTOIIgxpptmYWeo/8DkMYdZnHZB8PVYG0GH66nnBQKSZdTWTYXb4HBer09t/ds902edEXhWmT3at2Uyz08yEj5LlNOmx+bT3sa0uOz/qXaaZqvjamf9l8AmyLKvITSgKtaAmQCrTq42o5KO+xJ0RnpkAn5JbLrI0O+HS75Osuoa/5VHvsptZp9lpZsKPxhUTu8ouH87XQOeVLvv1EJV8bknemp4f6UFDPDMTfrKHtbkS6yNTW9QJvZO1LnsOqir53BJt1quZNDPhh6rSqeJhzcrFxvsFZqPLngZymHfSzDrNzjA7/EhVloJPkOVKcbGnudal6ZvYyXtc5YO5DABR/4EfxmBrrAxv8bXgbBBtMwCk24XMx93xyo3yHldNMxeRjmxmwo8UZaPKeSPLMZzhauuva13au+OV9v61Ph5TbE1jZuGH2ddh8a+TZMka7ebdnRZMNoN58hPu9raJDq+nd9LMYmbZzIS/X5JWe/tqGllOeusG8z7majCvFaqbOggzRGhxKa+M/dRpdpqZ8LcqclgUqeYlNrai9O9vu2MFY3bZll/9Ia4mOg3T/fVZHXVXdktCmln+0xk2M+Ev1OPobesSI6NfXWty+VjZPWUNKoWnZmB2Xuty7lCf1SmJbB4pnXPO8bEX1wH+VD0ObvGsOpR3NhGy5pX7qnwMeq93P+zosoMgdF4MLaVZVY5zmTLNTv0H/vQU0jvWaFmPJBnf3trtv5lHm1O4RrVuHZjGPo/I1GXx0u6kmXmanc1M+CPtqvU1nXlOhvVYkOEP5/lIlFGWIbtcjbrZjS47LZjoukWiRZo5rFczqf/An2JXox43RdYnmjSLJq07tn0lWpo2XIY2iVnrskuU0mKKQDzENsdPlT/LZib8brua/epLuyo1OSttF00+y8UGXWTpVrUgsxMv+7hHLWo+zZNrSw9zYJgdfqse9Tm7Kl2rfxPPWrtFkS/KI6NTU/qm8+o97jb7Jf10WYUZSrOz2aSZQw6emFnomD4O0a5O50mBdFZLjHTDeE72ZUnazJv9kt2GpupUBy3TeEGZbrs1nc0sm5nQxa7WgQBzSZOLIvVpRcZYWU8XbEfzwn5JK8OeupQnDJqp2ZpmltVMmplwY/qogl81FxSZv3COIfKSZPwy5lReaDsxa6fNHLtvaKqOfcOiTCNLs2JrOg8A0cyEX2tXox7b1PCCZ/Wm1bnr78olVCo5Mas23yOdmLW/U5ersz/lIFdNM+c8AEQzE35BeBzes6ui9ZE86/jOq3tRilddUsutE7Q7F/P8BaC+uswPbEhudRQPSBjKamaUKPUf+I4eFzmqi3a1IXrW4T15jDE8t6+sdgKuSzWV5k/c1F2XD3mQSzZNhjKn52JVyCjMLFyzq2PoPopuh3mjzuo7H/Y9QY5xQMg3XKZGlD7y7q2XDHrvcOv6wULdlSlLszXNzGaWzUy4FJ/m6b3QWDyrulRnrWochlLg3fllYA4H2dNF9tUlS3/SoLcu4z+vHOQKpVl57bm0SuJXEDLh3Pvq601JTimLtO6iIlPvM9nlp/FZabebldU59vXhZ2PWXU53c16nY621nsoT8+w+QMbDP8alfJNmJpwT5uUAmad17DCeL+sUNc7RLSc5mqMg/GyQPc+xr6fcoi7XiejdG5k6hehWmeIOu8urmVGtNDPhFwrTvOFZs1HNi9BnjbE6CpQptzyYY7d7A6luul2YOW7XTWnRNKlpphLPuAX4vjCzWM561jQWpC8Wdv2XhVd5+hrlyuz6OQkhvZzdRpe3C0EXR+2mpjRbU06VjoaFz7GZCeec2FPPuqR52p1pRYqpoPmZUT14mdlHyZdz7FZNZu8pfMnGbu77uE43f9IYbKPMYappZm5iOpqZ8KYwS+PjhGcNK5dO1xn2K+GxzASF1ZITgdip44PsbrdJaHs8K0GLAwWuDNqLUyMlzVTpp42ZhSvCrNM6zz1rrape2LjcnQk6X84dxIMStrIMNnZrEbvo8tG0U608LyvOPYf/LANAmFl4/b76Kl5S+2Gdw5MeY+o3qmpVr7dYVBoJuhQzVg9K2Bxkj/VQt/2V0+XZQnqSR33KcolomtQ0Mw8AUZmFl++rJ541DQSVcz1X9VgHguY3h2ZHL8oXB9ntToW2ny7LovRambU0W8fZyzQ7aSZcJmaO9vD+8rXmylsTQamatHqkkD8yuw2n4c2/nioIK5l9nsWnmy6JUKarU7P5OJeXKD0TuCrHnDl+Y3y92OL3h9jTmOBmSnBvNi9N5m2soS/SdnpGpkjSbfuJQe59lfGCcfuAMoCdsoqNw+vveNW1Y1Wnrvc8++UQffMqUPtvrvdkZkP1afsmdx0XOcTO10qZc2mahFpQrsg6ngAPr1Fvx8Wm52HP9Tz2I3Xa/JwPD7LvqtKvfZm963OdR9mPlSnus5c0U+XYSWkWfrkwS8/DvudYUxqr0yT7szg9H43nRVnuGNaQdXa1iqIX7JofqioWtkkztWE3E36ZME17uudyjTWLMU8HPR0PCp/3ojx4kXDLcvmagyJt53B0pEw5z16ip0OZ8CuEuXasVwJjGGOPK17taNGrQ3qzOn5KQh0C2jZJDmYNeitTnhdJP+KSZvqiUDrOTtcE3hFmc7nnrGOVNjW71PPX9Mzr25Z5vcTM2+ZJfMh01zMBUVz1umzsURZl1qZJ2ZquEuU6O5wXpnCs5+bXH3IuSF0aYl9PBb2Uv5hj37rY9NTMvnM1OjrSjTLF4Z+0qpk1KgzuZq0bYCXMpunxeipgTGct853Z/WbL/BKvZXtyCGGMY0Dh723f0aOe/Z/1ztzyovSRMsURoHycKxRv077dzHge7AtTPLHgxPh6FeOJpufX/17y3/M8/2tvfMOTuBfCNOt1zJUyi2qrh/Xfcth9zCdAFOaUd6DHJzljnQm65FL//c+/fgDqleVIk7pVmXHiTu5Ka5OLtKoo0xeq4rYMfha2unsqxtcnep4L8wfwWpi5m7pW5rA5AlRLQS7VqmJ5FmnCYcroJ3BsnM+bvofJQ+xfHyLM3PkY6t345gyQLWXaphT0CEOFB8ts8NmENmM6QmC+N7tezh/EbHVxx/o/nyLMlFcO5Xdae6CrREpVH6JpU0ErNX8mRRkIRO3iy3xLj+KvlmS1+DL7z+cIM4bAesQy/q1hdQQo2Nr4RXkMIo9LLBaDsAm1qPgdtxrmgY4P6H2UMFfKTKednWialECZvqh0dgat8g6rHUg34Q1hygOzL6/2fJYwozkd95WpxEpmHQyq7tXZrE1lHdqEM8KsbnW+drTnE4Qp2pdJmap1s261khmzUT1tnvHgL46luURtMbUI87VdzXq8UuT1Zd75A4QpzGtasqzKlGeAatMkVmxdOm6wesyD9QPGX19+NdyNRE6EeXT09fT4ehoLcml63Y+vf0Qfs9mUTuvP/2fvbHsc5XUwPLwog1BAp2rFU0Dw/3/mad6dECBA6O6C82mm26m0nV5jx759O8t93+qmidQfSH3BRPmTUHXlLDNMaxFM27EnhEepllWbu0zDJb+RwMB+E3ObTPtbq2ligqZveo0t1GZ/215s3Abz2pu2S4QwXO1lJ6sZKtWiIDDv7Ou3fAHMd/cXgMm8pRWZAjo/mdoESF0t1d4yb5+EgLw2xcT2Zoemy5avWrhOwSqEv0eS17V/BZiwBGSTWUAbIJbDJkCzB1YKpjM5K8tr5VQrKwlh7LzxEaPO4rIoWNwrQTgdzKavn83fACYsAZU2mZUhMwdkKsQIlbbQKZ3941jRTMG5uKIQz/VghLYD1nXxgCLoC2COdft3gAlKQFIoS20jaGMwUhVODzPJSunesGCnQirhtasSW/zMXvtUToZ6SCvrKoLy8zPZeng3fxRME8BMCUgOm+Qeg67MFH3ASAmhMl8ts8WaW0VTWbAt0qxCkdC1iz9FhGMtRdA1XXp+JlvX458FMzOhjzqj0pX1nSCTV4NEdLUbJXyhmWBzORyqgq1sp2Bie5d2yXb1eqEbnk4NKSqYvirP4wOmp/zTvb8IZp5Tz0Wzgv0QSKbIbL1mXKwMy9/YMl3pkHyeqVVCKBNCMEGjsgzRH9CoWavVJWn5GWpGJj99Y9Vqm+9FTOCqThxJuy9mChols5MWJr9KshYJg3Nlb7C4dYp2CsJ5TzAtZyAxbBnSi4kIZj9A9D7f1tZ5nlarDQDTSF5JNjNsQlwyE8mwp4XJktVUVIPWbMr4/iXx20Ey7wemnCVJttqvRwSzGe3LZNO1AMvWrgCNdfv7VTCB2Z1xy7OGTUpApsx9RdDM59QFlSCuWO+QsIWFuHPz2mCaHgn3luQ4bpSccHkQqZgoIaKIvRvqwclPH4ZL518+zHbfBRNcF/XFUkraPWSqJ2vhD5m9Sqaqk0KXpT8ES7SXBNMZfN62K0jp1ylvhJbGfz1eH7N5fvjrG6cmK9PZ0c16o9ZqA8E0dCUOmek8mT9G+LN4lUwLZjSR7t4CjOdfbJfAuectixDUjqB0VpAQBcyGn5bDxo+pACkwG/u5IwuiznPPBxOIeZyJTCXt8ZFJqlTNRy+JlHWPpOT3TvzcXv5Ua8J1kKFKT8usLB1Xy/xESV7fDuxwAvlXbW+uneIMna7VDvrJ4qu+OR1MM1liOpqZj0xVIsqc/Zghwh/xG2DXzuKF2p87HzlIIlG05evB6qD/4pRjrfKr5pJfJeuxhTlu31rPHfrzIyacxjQXTeodNtFkutvelbigWFXC8jKsVCKkmNneBEYzSCJ914/pZWPdMUfA2qjrPM0nk/1ExG6soV4WPjdON3NVKwsEP2bnpbpo5lDSrha8V8VkCx/RbAZ4/pBKZbZ8WSnSecUDVzuvzVdu3QL/X6zKjwqaw9NcG5unIK/pB1CvbUyAHX+b32+AqVuSBdxwrSOpeCTLgaUBw3a6L/CTqnJ331eYXkA0VNTuQhQYXI3LuUVduwXsrEAhi7ux2iVcE1u7ddlRktd0LdATNNOS0PnTJVnu7pQ2ZEpWKTQbUb4i09VkCZeps3tkmoWU4vi85ufe+Srxs3wtMGMJ2LkMwXEliSYwUC3LB9TdGVEB1MZqiMevDkq7jlz8v2+Nl1ArZqrlCL5aLHPHLwutUl+3eGF0pvhZRjAnFkE0SXy13WhgqppOyPDlpFb7lXlMoMUzF83KI5zVe+hF0PTtxZb9KDUdHXaNxHvmbcHU6W4pHYLomkSPxspkB1aN/dAZMHzZsec+eK32q4PSn1w1n3Q0tdaAAk51RJUtzIUOJvcuKLWxCNr+IJj+2ecsBMf4YI6ikjNOxD++7gqvxjIl7fhdMGENaHLRlMJ11+WZlmoxwlqVR46coPYHwVTjflqit/3v9TEwOzPFJYQCn+vjqji9aUXlltVqV4Y544BJK2/jJDN1IfCAu7RELftiTZKVGS/eIinCU1s8VwHTFGa1fr0iZF/2JNUJ6REun6rU2vSqedm8xzXCOjWY2XRjbzorB8bAVpU/QIJuZLLmokmhkaWQtOcloLlS7s5pFeDkq1okRYl0XhxMKF/fPk4iERQaIblqU+uEDvUxB93v6Lp9kc88uW1/zwMTYkay6UVTVmwFqiq3hQMlRCwUYqE0CDaZ2gZXbfH8i2DaLj2rFCZikISZW2oKgUQonoj9XcezjO2GYb8IKETEDjADjRMtVPeRWVrzJIle9hUaCRPewXy9hFc74nmrQwCFEkFXHrQoSzgC5ljX0fzv+pCq0d47ZuHkpkA8m9lx1JYauFOYhC/70rPRYQtjgPoHpT/XZJAQB8NyZoL6S1rZtq4fsYRD7REdUOAaPoCZaZzoi6ZFpgqq5aTgw218eP1VXiLD8OQ/hWBeK5XNjFA2KAqeDqYYpGTCuuMzlZ04A5MbiHMamDBomsaJuWjCPoq6iX5+hnijoF73lQYbVGIue63DB6WjkegMhu0Bs3uM7HCtD/9qPCAUGIdBeenxL9rnaWDaQTObTIKpgm2l0J2LmuoKafZ94fTlHcHMo6FotVtKZqa3S8TuzFTW44EaUDfa85nPE1JZ8wbCoOk4/4C7p+P380lZk4UklS38KvTWEsQTwdxlM6ukCOqydXz+8qAHQQPHrNtd1aS1QekMviEmaJrGiXvRzJwdfPOrvlRuS/nNUyxGwAIsgrkqCjJWQf4yxU4wzfzl8VlnYHM57nutVUlelS4HTWM5Qm3tAff7kT+2lqwS4yCLw9EIpj9HZSxyUdDah2OvJM/MVB6fddZkjjvLSAFaWQqGvmDQTHPnolkVub3pS/r9sLe5XFPl/YCdX9KVC1XtNwMT0GgUQZsdZvdrZbuIw85HXytExG7lsyBoUpdWVQKCigQeCGVOS6sg5Y+cjpY3T4yeVwfTOBDIkecdMEYBs9eZbBR1gZzPPC1i/tijJQC7xLYx0FHUUsuy7XqSzfDVtASMU7MsBuu2V2uX6BXlxn/gYIaUKN3ebmuRqf/dsSHrI68VPI9Z5r6bZuY+5Bf+CNN1vc4w8BLJx6mZ9OcTPSl+mK90KsHiVtkI0eJ1BiDNHPX6QeUP24fw5POXEWYqtZfe+HsqmCyfzT1Bs7KGpX+WhD+m/MoV7cH9Ed7zRDBvdbRqnVI5PWJUs7l9oknymgfwvzvKpfHS27nP5H/hbjpWPlsZYHO7b0J0FKU+4Q/VrgX5BoE61oEuiyCLgVwrywhM5ZmYrm/R7O0FszX+d0f9QeBrPc8G0zHlcoOmEZor4U8+oy4gYieCGVbHO+T9UlkLv4kVZf51raxtend4N7SZlu76M8DMnCERYP0DgqZqWOpH2Hj0qrpASwuEqp3ntsjnPU4aWSV7hhP7nz2rg9JOQpoAk1mzMLpyLUcAmsWyuoB3R9S4ZpHiYgQEE8EMGpTOnSV6RgoEzCkTtfMrAQjr/GTVe53VX9WyTPZ0VM4imKEG7LK9Ls0tmSQhvQeYVmh0WyfAEk9ESNjB5EsR2FsnXHzWlTwyueX9EbmSD/FEML0wyn0IjEShDgITwztdRbpzEOvOA7NwFrZDKZAbNO0OJhEyAaUaymiAkIc75smdXzK5RT5vDGZuK4O4NGhRjrATzLZvTgFz7JvzwMwdNE3rBGSvtJjKfkQYLHMl/QmejubaH20VVFb4Yb4BmHZJVgdFodEjpxo+N+9oa0ecgLlPLhu8UdqtAlVqrCufBs00mdwhQX9EmBaG3SLZ2EnKxD8oMLgmmNPsVOll9yv09oH5rNtTwOz3DZEFb5Tm90diQzuxGNHtlIz4C7Cp0v4Ia+ig1Jb/JHr+XAvMl3GV1ffEWDeWfalsW9fvE7hkllx9fDChpGCSpSYGWw2iznHnnAuI1R+R85eoL7jZqagYcz4qXP9Rts/icPEezXeVfiLutrTmMpm91wnKH1Kl1i3A7p3o1glAVguBFkxFuPiHZkZ0VeJ4NB7w6YAHQic1s5bZ7ME+prSxG+sjnnbzr8vGv4b39tcNkOQBrcD0AmlaJzpokqwMMhUB2a1okLCyLcp/7oFeMo10E+hy74ktMOjGtlWedvyrNo6x7MHXDdLKJjaaVig0rZMSOBcUoaYiOrt1pe0YPq981NbjvezFVP68I/rjWWS6r3uGiD2BJga5vSnatE5MMIWynyys1UFkg0R3SMJdZ/H8a8cMSv95SV7TQH+8eN3M5vc57Pfd2zCPWYI/ZXbvRLdOoCUQNf2UkFVfMHzyyVepbRebhTB8XgzMv0orC9wmxy5iAagxZrWbWyYbxr7M3XG6NshcNUHDkaaA5UBPEat2q7PbaWcUD4I5MzCWvg744zWRa7KSzHazV96meUwCuye2uF1fNa2H2Zov89YVWyuvfJ9txj1JUPmDYBaTtXuiSMTqRbwTKt0ts9/dITO6+GfYa++1CUyeoIJ3yYpjSep9WKz5Eu/kPttYfvnEXPaGYDocKmUQt7WklSNdB5naDj2r9rSLLfuRp2/OBdPtnlgMaodnV/jDh0YKWG9L8eaIYC6jKDEUuiAhXA8079oOJjeBFZ52cVPZD/DD47EnR17bj+lTCRgA3d4J2Gni/lxi3H602X2KOxFuW5Wd9kWkPC+TDJLduiC6J7C1hzzt5jPZz+uyGtDmXHZNK/sqfXUX0D3Jnb3u5ZLfD/ddYoI8OEqAjZH7HapUsnKIK+pf581gNq3YisD88aIGTClgZzWgPm5VNvOI1yWaoOJKfWiyPJcsV11TYzbLpzW5ph0D6B3Omb/lzWB2qnkZwR/PzmR1BvsY40bMdD78ge6JPRJGqE51yxVLEQVoaS4XJZ/6wfwWz0wl0NXQKvNZqi1oN4vYO9BkjFr96UDj5AwwWcKaVr4Srcf+5wcq3z8/F1BQZe7aYmOJmdjE++ddALMYq2zGpIS29J3Z4tEdzLjMpHnuNXCuSjOU6YyEyX/hKxFCASNK1M50P9z3h8nace3XFe+YMyJ1dMnbCObckCUo0dpBldAUuv1siX6JSnBfOr9FgcHFqrJoXxkTzDxP6UKJ1nW6BMIf7pOXVdt0P2CmGq1FrgUm+srG8vwB0yJktkT7Addhjwl/pE+ebI1stivg66YxYiKYXwHz/Y4ml236A5Mqa8qfBCyeXchoweyJb82XCHuglYzCHwTzDAU7Vwy9jtDURtSxH3mtAEleQtMJmtNaK2uSqAqtB9xEbXE3b2WJnREEc5/vuvG3VLI9uYiaK4ayAyx1Eb3yuuHAauogrSxJaDnNaCcelbBJUs3lpGnp00QioAimz9PAjJAYBDON4FzJ9wBMz9272b1Cv/15cbCIPYGW6nOWPsxTRGW0s15cLHry1pS7dU15iiCh9wHTxtAKgUC7vm0N/BEw2yh73vXIyuP3dDBZZ8QyMRCygsRTBzL5brIYhrnVj5b92I55GEEvDiafYTAIav6OO1oeAJMPTLeRwGSOsu1XwFTDlRaaCxktS2mzVXG6kv2kpbuqgme4aDl7yUNOzIt2gdk/P6fnJpZPfv7P3pltKaqDUbgZi7E4TNLq0vd/zEMmkkBAZFAb93fVXWUhCdkk+aesCJql1ypJttfv4ms9n4/ZW9O6xhVttCS2gFXLs1m0VbfGpdE/SJQG+wozv+k17c4ryrKX/Wu9RJimNe1gzepr9X6IOJ+Y+eQiV25DEWBw5Mmzj2VEDVbv4ai4y1axZ73W5IoF7emy/lqLhEnXtL2IoNS07HVVM+7zRyHQ9E06iQYQ5qFIo0lWOTIXBrGffu6La01OXqs87XDa18ROgB1LOxnj7lss7Kcz7LBjvp4PSoeh9mirzU2j1jeK/DmVt4W1JifKey291sOQPHuitkBvwRqYskj8tDO8qp4WateBZ+RrhRl8ZEgeX4GWW9hlz+sKYj6OlSWB6+ORqpZ+6NCIh4QW/FHlKauKQKEQ5qcI8/q7tNikYZu58lqzgthJZsj49tBXiscG7njVdd8XZtdBnBWP/kksVP6BMN8nTLIxpKcAbRBjQB0vv8uv9ahK3mSgj5wR9TXtw/QuatRJ2LlOUqAi/IdFuGMOhTAXWH7WVDC4EQsqsajmpy1WsufL9ba47t6jg2v72ZijkiO5l64ybybzJj/iGhG+kV6SADvyGwFA3yzMafsQr/7MYH4T4laxF69kiTWWWFTXB7JfqTWWVMRcWEP6GWE+WtRaWpl2clrJE6Ki3qs07Va67fPg1UVo5W3I84jCnCgsIgPXhfSk8h4UnV0Yknc6cwvq6XqTEQGX+UvRy/Ui6+Odafz6qb1WuctS1vi6Gp8OLVrTWfmks6RgD3NfioVuRQSKzeexhFlJ9anaS1MlbH3pdmZprGx56YIN/koXyvzQ2ctZJpMo17ruIUyL7B3N2hybDnv7TXYcwsIuljFAEOah8BX1ba/6xWEBpr3ibLPq6ar4WU4PLrs+8sdPE9u8+I9GK1Pqse7daQjLba4wBYH9hWlOnJ5vVr1vmGQ9O1FaLT+ghdlZ4+JUHJddQLrd7hIgM2DtiLOdPE75/HADcjLR9bXCFEtUOzCsa6PxE2l9djj00LDGfSKwuH6tLqP93JjRhlXyRnMqL6aV7Ha5nM8eXEvO0xtKk5RbT6csOYNT+ALFJeIg8OcLhfmZIXlqtbwrgSSD3a4MzRuSa9ZYyvm3++zfFwuTbfdoQcr+oradOCddGqQOPg3Li4aGclZRAoW5IMwPEua1l1N5U4V5uqtT4+X+u10u57q0L7GBHLpR5hxUklKJ2pEW9tPVChKrXMyiEOYbhdnLqTzrZbVuepktPTP6/vKl7GADOfCluM8UdGbpltQdop73pVYWQYA7hPmmSuxqTuXvXUveIttJLWtEzbK+bVPMa7kwxaYzMvhRnKczoknSOo374afa8sifSpS3hDghzIdBsmtjZUdLhPSK3ZET3HUzj1TxeaPql+uEKcy18gh3mRJN1rXLwwpE/GzEJYojEr5TmFMHgqkFZ5Wg2WWlRYyTJlebFOGJQiLUbxf+b7HyvW2YyzmjgsHcjiabzsG6NlhdyJlNpK1IEfnzZcLkmlPDZBN+hKbwV/oj1S63CzA492fB8kyhP6TcLyJ0T8yYr3GXJHa7Z7Tmisi0rnWDBcV+wNGFGRmEl1rbFJfdTJg0cVrLz9Qrdqn17878o7fLS4TpcHeGMzMY3af2Wm5s1dSJg4TAgqXYO4VJVrK3K9HiXU+ANthfyUr2Tv0m19cIM+hFo89amPq8PmxgOAeGlRKBQsHHC/PnRrwkvZzKk3RwqvbXnPyPJHlttZZ9RphyYTpPnrQSqCMyoNXdPBEo2awnOKvkSydMa8d4zI2E2aqMVYRt94+56uA01b878/zLy3mjteyTidJijfrMvtH3ZX7lMOon4AV/aGgeRPotk5qhEoFqWG1HV6JtPFVjj2RfYZZiRjxpEXg/t76tlgT/dCq9X98jzE6efHH73JuPatSh7kp+FEJVMXdlN6fSggU0U91H9M93CPOxa7KL3NT8I4qQO8ttS/SzJydRS+/291Eu555WWfexmyla6BThrhBa357K1DUF/9D1Lo4W+hJhross2DrAYNy5eT+vKBm7iR/T4ZE4EzWR5Nl5a6pPiuAfLlN5ZTafIsAAwnxtSN5oDO2N1Nn6uW+Z47Uw8ocnbkVGM6u+uN3QKWJ18T/kq3F2CYT5GcIsmdXndL3d/p7eK0xlf8jSQib0yRa30baVJ7HZhDA/RZg/9zuLwztd7uVnCFMRKK+o7k5uAgKRIIIsS3AcYXbm19PP5eejhDmYQtWTZk3lelnsFcvggkbBH1kW1d2U7UuLvI8Nsks6hQqJViMHrGlZlkiF/mbSgePDgDN+UG1qhPs7bQjTtMq1UmFaVU6EHli6WfqALfwhFmILvovVkepT0zGEOafzU+qrZLZVU8UfLltVpwnmUwBhvvY9yXRKQ3941R92CEJVDc6vEPEFKHR51AkTM+aHCHP4eMjCl0f/cI+l2SAAP+ahcMzFB3qp0D6E+UlvUrZNTYVU2ewJYR5LmNXYKV+GMgZRLzC2Z+sZzL7fIExrg8OX1mNhKXs0Ybrbxcj2QtudxP0CYTp6aL98cak5OW8VLfgeYc6U7Tf4MZ3pN9bwjFHtlFG64IBqwUuE+aLIn08U5oISg7LIIJOuVKzl72qaAxDmtwtzxV4h6OZaOcXud6IpgDAhzMV7+uEZ4CTkAIP5yFbZTSNmm5//DsBM48/b4KEHcJccimQ6SnYd7t8j4DzowA8BFQzAbKz3469muon+x4DhBgAAAAAAAAAAAAAAAAAAAAAAAAAAAAAAAAAAAAAAAAAAAAAAAAAAAAAAAAAAAAAAAAAAAAAAAAAAAAAAAAAAAAAAAAAAAAAAAAAAAAAAAAAAAAAAAAAAAAAAAAAAAAAAAAAAAAAAAAAAAAAAAHwlvh09IEEnveAxOEFT55S6qY7X51VJaPxdvyTJ2+8ocvsIHWYV4UNs6GZnVQZlloVezPG8MMuKvIos/ygtzHnTSmvHL7Ez9iVhdYAei7yHxBWks6ssq4z2s/IqFF1fNOkhmuiI1sXljt9SxqL3nH+/y9zHE2bsQjx7Dtoi9sa63ouz6AhtbGQL93vT+FksRmz973dZAGG+efMVxpOdXxxhOZtLYe63e3Yy8S1eDmGCddTj0yXr/Mw6QitfIcwUwgTb6fJR5x9ixqw6yWQ7NqfolrLNdwgTxp/d9l7xw84vj9DOJHyF8Sc/kvEnGJoCB0RQ0D5E+jpW8Zd0NlqvPkRLa482Ks72lEyS0a6L4/ufAwnTyyozjetDQrtgZZou47AoqBu+KLL2f1yjB3EiV6RNWblv4ESaky8pmj/HEiaU8s6FbJw1dspegX6aOk4QNDWJlTlKY/3Etvd3ylqO7RxjHoEwP2LC9LzaQo8ACPMj9l1Sl2GA/gAQ5kes7TrrfjtfQpfgU4XpUz7gyv5+d6L1vIyOXWB6fcktvvDhWzYl8R99zpn1uTc/25cL02JM/M7v9aPhh2nSv4DvVHlB01yKIm/MOU8Je3KKASF167IoyryZMCqwK2chMdaV9WQ2lZ86jl01eZmxGynryplprUgdl9ivA+cZ64YSW/BcdE9qN2XXpMqZ+bcW7cAk9Q0Gk6Aht2/PMZm2vdRexkks033RXjD3mj8+chI3lylOWVG33WhUThIonwuL2h1+zjTc1H7LRb/ls5+tn9gVe7jWxwozbXVAMRgqIvE71bwfFIMfOk2ehaXWdVZTUC8X96XGcVZWg75Nhf8gYx3quznzWtE/qM1jyq+0K3txWI5EMVnVvRUk9yF2NxJnw9w+lyVN5o1sUZkJB2Q2PxdQWck+Fahi15m4Sdb4Ih/6Bm1+kzUffWlVFrR1Yda+nrTbaFUh/KfhoN8r0VhftpVdp32Bak1tv0HphYHnu+EDYXivUd5e0FO96bGXlU0ybFLvc+SLylq9niPGoCnt05H9xkfZ8C679lby4RahbJbzocJs4nHnWiF+p4aQdT/MOvmS3vVi9e+rtsP6ORVx0e80WzyTmPwmrYnilD8wpuDZxfDKXmHYzlnkocWeZ8juCEv9zZp2UQABe6mQ8egpn89nrpMS5dvme/fSdnh6g3vMrYHoRf4jG9O0eaJvQ9m5fqP2I+l3W79HcR3avRV7elw+atekud4LXq/XLE+7IbU9Xmzq9jjTH6g1bDdvTKWuQQQDBZG/H46F3l22g0wb4ClVpfpw688UZrf48prR939cKIOk6BrFZqWC964SfevnnimKO/ZqfYA73W+CVpZh/3F6hm1aZXqW7c+G0qnjeCLxSh+rah+0j3twI3Exb40UxQui7uzM1KT+PUpHDHmoSdkbk+0tN3xBkfVvPw5dY6fnZPnj9QOV+NfS91r/jjRtWN0vyhntYTeizYWjn/MUEXZm7oEwk2Kk3/S3tCvGoueScgiGh1v6/64w/RFhurJz5drNKuLRIFHfKEyvGhFcPZjfvVlXbim9yfyO1CjMisz13uKwcxldMD97MArHhmcYmYVZ/GkMf8OswLZptGoGYtnpdWp6gXpZwpY8Y796IMzR9pAWOaouxx+QsvoaFaY9llrn6SO5s8d5tt+YR1l5LGFm7XtbaWcs0nLSIp4Zvu1I84BZcF4cjAz8x8qsvek4ct8gzDAvR+bZeVvG7mUwPxZ5chxHJmG2W0pjb3nt6rn24nDkV8NOL8wPKi70Bzv2fjIL0xlvz//sneuSoyoQgFXEUtGiUCje/02PmigNdCNmk5xxavJvN4yRho9LX5fpCLR8kh5L+LoUmBUd8sq5RhXliujV9yI6vgSmv8sdw6NS0RXeBGdgKKgAKXjTqlNxjiKI12vTQR6ix8AkR5tnKVld8GCuYzdLhVR7+zrwKRKUsMi8CUA4QOiUNGf6MNqegTkLLIIiXpZVqh2YbwSYKa79nRlasLJm2f2Psn5H+bORjvPckKeZa+Fpnn/480oPHeB6RBFzKChEoAmCHA/i/EV4xpbZXOS4AOGGh7SoxaaU/PQd6RbufTKETj8HooWC2YM1TnTy8XmOAgfn+8r9BtJOFSdgNnNabmDCtpyfz7L+d4EZ7CnNYynzFKubvAUBBEOmRCDk5UKFHmSFVFZro8DaHsbrzpslYZqUMZvRyqjJe5MyBeZmWPFAzriIDOD18hQKWnhqi/Xj2w+qFJjRspeQY3VB6PRXcMFBwXQbIZ91NTw+Va/tIn0JVGjO4MunqB08buBgtp76fpOb1wOwnsdgPixSPKXL+DSYy7ka+0CT5VvAXO1U/HFrs8AnberH7dNOYHMFAa8sVHV3C26tNhPHmjcSMKifXShbd6bhvj2zbBkbR+gRUo4aPKOiwFxfZDK61QqwkJMOpIL3tCy7JzieSjNswmIWLjYTBeZ6mZxM29qJR6aWVY7B67trVwDmZga1dW0k9pzJ1LX1xDAkwSylO2E0kRtDCaaWi01NtSPAhJ6PnWKb3AYLegBmbADmyu82uDOck19SzJ4FSntHhX8Gc7OizaYKRMahNaqXmL6SBdbFw7Kswb3geC0N7goVpt3jGTQMrrXGwVxfZMd+dCemnFtjfxVM108xMWCB5cjJPzjIy+MldRdGgD7HomjA/qVQMPnqPtHsNq7Q2rvn2RyA30SVBJNljsXQ5aYlQcFkYOVyL9QAZbVbdj0wV0Nt/ZQbA3R/KQnTWWoRePb4VzDXodVVE90xAmW/A6JzQ8HgdDIVqlJ17wquFS16HORyzGEh9mUFYC7dgS/itrSgP/izr2rgD3ACnTI4dhgMzEVaYJoqz8dGQeG4jWnGwBQS5LhtJu+qAH/hyCICrdUYmH1mkgYmclNsoWC6SeurbcBCpzDlj5ig9xG8dY2/Csxl85WqHdEra3hsr3mcBB7MkdAzSkaZntzEDAzaQIGSEc+BTacBLJ3aH6LafdVeADPPg/1QLfLQT2jm0dYL+t/53ooQtZnhd1i3gwGtrLT42K3jMRJ2IJOUpEXOI+gMFbmCQsF0RAXuarMIVJEQzOU2WxZEh9lvAnOhsm/CP9mtudEa5OaVjZ1Qot92I7wbtZ3BLzBuutmXY2x0b4iAGTsQuVU1w9h1Fcz+sA8oyoXI2fSBg8EY3lSP3w139ZHTYPLQ6a/CHQn84cgF0+YpvV7aMRnhcwRv+cf8cw4GNrZV8QtL+n3ARNzeG1JkTsLIqSpOpunOOvuiCBSYA3FvFDmpR4+0azPq+RP5DIjPgWkFdUx2FB57gvsvRfo1RA66wI+vjISuqUWIR35OVXxXRcHUnBx//3kiVy+AgVnT88btpX0EZk/bnb9UGeVLYCLn8oE+yhxjIaYMMMtIZkpQN/XDBTDrZjenwLS0OSlDpX4VzP3ZyOXYrQf1OZiKBNOdDzLALGgwGaYmRqZT5S4sJqXVAd7+J+lXMDANPQVVNAEdmPGu6FY08yPAFO8BEzmXHwMTx6oMsQosASbQp9u0ogTM4iwPDvUqmOrtYCpB6nBNtFG/BKZbhv4NTOwkhIE5Qrv2rBkVRllC01eiHQ6m4qQyNdbtpcBU/x+YAvvAafNeMNtDLmNBn6qGczDBNV6He4ghWZNxrNUaBNzCT/KO+VUwG2TzjibY0dvXdswvgwlV56thTk7K1Fg0svLbdWu7qrwIJhIX0kcVFX4kmERe2ar5FJjH5T9ey46nuWvTFTBdyIqYw/44jVPwSqVWIJ2r78T3k8BUyBDyW4LZ89Catlm5oxjpimjHcsA85mUstyG6vP5MMM/t3J8BEzlkuDly/GEKTEOCGTtNuC/8MEsl+RHgnrpovx/MrNuuQy3+2aoLFVr3ANNzYgfQyTBKXuHtuqm+AGaMk1NDy5+9Y34ZTEMOLThwvgTmeO7DHdxs8eC7T4J50SXPdUknwJybW4HJ8LCPZXn0C08PdLvxFExOmsdg1OofmAVy+i/eDObQnYPpHWWVyFZNvwvM4X1gOhPQzcCkyFxl4hFHhu36iRIQMA9JIBasPzC/DmbGjgnjF09r4X0AzAaPKH4FzPK2YBbjTNweAjJLNDVQSOYfmG89yn4UTLKCmRcOzAnN9AfBBK6pOV7RvxTMNZNQJwQCXahF7WeJt0sHSh+mtD8wryt/5tQds3oFzPOjrFQDcpBdszIa95k+qJUF3k1d9W9gjvKmyp/nFdnMD8XbSUAyszMGMXC6TCp//u6Yb9DKItbGF5U/luEfGDgAVmm/UpT+JJggS16Gj5dzy4l/lt3UXAKGoFpzd3denDXmPVWyNm6nXtbKdt0fmAiYOgvMDM+fhB0zZzPSpFu6/SSYY8cvtE7ZMavbg/n4u5LpGVxCqIDkphwsbOdCA1+2Y6o/MD278S7GkXzaRZe8p+M/iMDOiARQnBLAR8Es3UE5xzsw4fnTdm9xyfu/wXyIF+hfy6T0RBwfedHzp+J/YF70lT12kywn9jHKVqCuBHdJTh12PgomvNq2+a0/5yv7I8AEmjgx5l263ako6Ss7JXxl7R+YULR0dAm7FF0CAhJZOFXPhdjQeHwWTJB6IMNgYgR58FfR+eDGYIKYjz5TeaZTYFo6usRcii75yWDqt4KZGKxjzmbFY5rI8GBFvo3wsPTHBS8+CyZIL56R79IKSodbxo7FdwbTCT19jqjjOGsMTE1qeYspCn2+K5htYuJdBxOJ/4ttfCYDzCnyeXQZDPip9of9X2ACV9EMi0lLHgIqnshg8HvB7PPApDMYgLwpw68BMxyNUaF+LEkwwRHMEjIH+S9oMKvYQWe4kA2PBtPlggPz+41g9jBj1hmZg4uEGwm+kZw/tz7KVnkAd8mjLMilMlB3fNncHMyqwxMbMdXxF8CsBZ7usUxmyYuugmDjseH+nZEohnrwWIOMRR8Bs4C5XOVZYr2ZeLjL1CnMbwBzylP+gIwCSeUPyA3m62XbLpEl72ZhX05jBlJ0NmvlUdxF6gRMkLwKkllNybyyIRAGqzNpoQE6umY2sFA4ftbxUilD2bwTzNbPJRmU0huGqu17FnfJy3tsMbf8G4MJRi5pRNI8z1wC6tIIGLOik3llf1YGg5n69LGKWnRber+yXyvIUr6LJ2AC53Fx5KSsIOZoJnY5m3onq2lnfpaKHCQIHVmvjZonCWB13uRHaciyVn6pHHAHfCeYfkCi2LJ+Pz52rU8vt5yfZdwlMT0TZ456Snf/R4M5KNuyoAqqK/bnXKgHY8I664MCiSaTDgaLLESUg7PRoKQSlon9BqlFYD1omOZ3TQUxT11U2/MKmMB7fJHI8rwFGRgYCd3bwVV9bSHlumKszcFPa4z5tVRtt7VeS6PspYMq9EA52XatutDFVZulaYf3g+nXoePAa148y9iDMnGgS88eSb/7/c3A3CrdraM+K7v5Js9w9N1Pqu0/tyF8+DArCWoZAVM1XrvEQrnJXW4cmzY/FEz6E9+XO6Ru0mUw0fpq8H8qDEwvaMSLACrRdbKLa7d5E03xxDtAavTbwfQKBRHhacejxo5HPSLCMW4B5mbHphJMgNEsJRIcBJbM8QRMbyogcgOeB3cDUzrb0WnYxiUw0+XiPMPAaUU47guz57mPrhNVTWNE3gvmeSgo8PTRyZKfaH3Mnwxmz/NGk6Xb6eIEzHRxPbw+5t3AbCiQRCdfATPKs4TvFVlghjDY1DSGE5ZKRCK48rD5CJjL36TXOpjNT9FtBV5R+ieDqVLjA1ZOK3JHnaoonZAx98q+3RZMT48IxThVhr8CZlFTJY95MLnZRS7XYUpAP3vnSaxaoJB1weJqne8Gs9BdctMUECCSTNHVxS8C00+amqgH7/ePAjMhN78c408Cs75yx0QXn2UK26Z4EUxoHPFPGLa4ACZHjCJFS1ch98ONkXHb+rTWpuOfBnOVQGKK+o4+lgv8vMuKy2Cy94ApaTDTmdjpk7m/zPSJdrrIAnNNtoaf/6siF8xvZ2Lv+elHdH4XvdqLvHvo7u1TjeipYCaxP4G2SZVWcuHrfJaHzqygweRensm1vURjjUezzmxft7P9e/LHozGdl9iSO726evzYVjTaPMDcpRKDucuAX6s63GgZa5z4pqP1CtxtYpi7UEO29D4s/FrK/UXmWN+2D8kYg/n86mCNHVMgBnNvHO+Yxx+BHRPJ6NKs1WNFoMrZBl8NkXhE2OttkkS+PPtYRfvAMHfxLJNhyYV6H1wETHN89x0wy1mefrw3qbbkK3tSnGmv8jbsz4FWXIM+IUZzNXu4Z8pJMdpBh+tqrfDdwfaW4r7Us3waSB5JKeQ0mz5u/Ugruz9v1g2Ae9p6ME2PUSxl9+xT7DHGpudX08VKbU2vZJhuaJGCZogLPlNT50tLx3l51fMlu2j16OkhsftX1l2/9+dEaeuPoUXi1ncpgDqxam/e+t2eJrmtQfsILfPHxuG5vVnbdaDd0m0TvVO/y1+VqNzcGD9mTfRD7NnfDqk8XO09mL9TH3OZaqef8PW1maflMyvTx89Bn332DmOvjXmUlrftgJv8oK9sydrnHxhbpQVVVvujre4Z2Xbcn6ej7PsDY2w8EBmrZ3YSDLDM7hKvqZ5iXd/iv/buIAVhGIgCKNQyC4kLQej9b1rRVAtNggstob63Hspkkr8qJOfU+P05TnlYhW7z16pN5h6j3v56Kvkzl+qxaZyoj8rjNIzvvS8+kfCsS/e66VVXXnZjbY+NXM+teBLS9uaZb2zujqKx/p9oXS1yGNH/xsP/BRMEExBMEExAMEEwBRMEExBMEExAMEEwgT2DeTMM6C+Yg2FAL2J5hOEahgEAAAAAAAAAAAAAAAAAAAAAAAAAAAAAAAAAAAAAAAAAAAAAAAAAAAAAAAAAAAAAAAAAAAAAAAAAAAAAAAAAAAAAAMBhzaiGJYJ2nim/AAAAAElFTkSuQmCC" vertex="1" parent="1">
          <mxGeometry x="162.26" y="45" width="66.24" height="36" as="geometry" />
        </mxCell>
        <mxCell id="ad4-t8fsiWjWlTMB4g6z-416" value="" style="html=1;aspect=fixed;strokeColor=none;shadow=0;align=center;verticalAlign=top;fillColor=#3B8DF1;shape=mxgraph.gcp2.biomedical_test_tube" vertex="1" parent="1">
          <mxGeometry x="150" y="170" width="31" height="100" as="geometry" />
        </mxCell>
        <mxCell id="ad4-t8fsiWjWlTMB4g6z-425" value="Article 2(12), &lt;br&gt;Annex I Section 20.4.1(c)" style="rounded=1;fillColor=#0057D8;strokeColor=none;html=1;fontColor=#ffffff;align=center;verticalAlign=middle;fontStyle=0;fontSize=12" vertex="1" parent="1">
          <mxGeometry x="228.5" y="200" width="161.5" height="40" as="geometry" />
        </mxCell>
        <mxCell id="ad4-t8fsiWjWlTMB4g6z-446" style="edgeStyle=orthogonalEdgeStyle;rounded=1;orthogonalLoop=1;jettySize=auto;html=1;entryX=0.5;entryY=0;entryDx=0;entryDy=0;endArrow=blockThin;endFill=1;endSize=2;strokeColor=#007FFF;strokeWidth=3;" edge="1" parent="1" source="ad4-t8fsiWjWlTMB4g6z-426" target="ad4-t8fsiWjWlTMB4g6z-442">
          <mxGeometry relative="1" as="geometry" />
        </mxCell>
        <mxCell id="ad4-t8fsiWjWlTMB4g6z-426" value="设计输入&amp;amp;基本要求" style="rounded=1;absoluteArcSize=1;arcSize=2;html=1;strokeColor=#4284F3;gradientColor=none;shadow=0;dashed=1;fontSize=12;fontColor=#9E9E9E;align=left;verticalAlign=top;spacing=10;spacingTop=-4;fillColor=none;dashPattern=1 2;strokeWidth=2;" vertex="1" parent="1">
          <mxGeometry x="101" y="407.5" width="699" height="282.5" as="geometry" />
        </mxCell>
        <mxCell id="ad4-t8fsiWjWlTMB4g6z-427" value="" style="pointerEvents=1;shadow=0;dashed=0;html=1;strokeColor=none;labelPosition=center;verticalLabelPosition=bottom;verticalAlign=top;outlineConnect=0;align=center;shape=mxgraph.office.communications.journaling_rule;fillColor=#007FFF;" vertex="1" parent="1">
          <mxGeometry x="139.5" y="507" width="60.5" height="63" as="geometry" />
        </mxCell>
        <mxCell id="ad4-t8fsiWjWlTMB4g6z-428" value="" style="strokeColor=#dddddd;fillColor=#ffffff;shadow=1;strokeWidth=1;rounded=1;absoluteArcSize=1;arcSize=2;fontSize=12;fontColor=#9E9E9E;align=center;html=1;" vertex="1" parent="1">
          <mxGeometry x="228.5" y="414" width="241.5" height="136" as="geometry" />
        </mxCell>
        <mxCell id="ad4-t8fsiWjWlTMB4g6z-429" value="&lt;font color=&quot;#000000&quot;&gt;流程要求&lt;br&gt;&lt;/font&gt;设计和安全要求&lt;br&gt;风险管理&lt;br&gt;风险控制措施&lt;br&gt;协调标准和通用要求&lt;br&gt;" style="dashed=0;connectable=0;html=1;fillColor=#5184F3;strokeColor=none;shape=mxgraph.gcp2.hexIcon;prIcon=cloud_pubsub;part=1;labelPosition=right;verticalLabelPosition=middle;align=left;verticalAlign=top;spacingLeft=5;fontColor=#999999;fontSize=12;spacingTop=-8;" vertex="1" parent="ad4-t8fsiWjWlTMB4g6z-428">
          <mxGeometry width="44" height="39" relative="1" as="geometry">
            <mxPoint x="5" y="7" as="offset" />
          </mxGeometry>
        </mxCell>
        <mxCell id="ad4-t8fsiWjWlTMB4g6z-431" value="Annex I Sec. 1, 3, 4&lt;br&gt;Article 8, 9" style="rounded=1;fillColor=#0057D8;strokeColor=none;html=1;fontColor=#ffffff;align=center;verticalAlign=middle;fontStyle=0;fontSize=12" vertex="1" parent="ad4-t8fsiWjWlTMB4g6z-428">
          <mxGeometry x="48.3" y="86" width="141.7" height="40.88" as="geometry" />
        </mxCell>
        <mxCell id="ad4-t8fsiWjWlTMB4g6z-445" style="edgeStyle=orthogonalEdgeStyle;rounded=1;orthogonalLoop=1;jettySize=auto;html=1;entryX=-0.025;entryY=0.454;entryDx=0;entryDy=0;entryPerimeter=0;endArrow=blockThin;endFill=1;endSize=2;strokeColor=#007FFF;strokeWidth=3;" edge="1" parent="1" source="ad4-t8fsiWjWlTMB4g6z-432" target="ad4-t8fsiWjWlTMB4g6z-443">
          <mxGeometry relative="1" as="geometry" />
        </mxCell>
        <mxCell id="ad4-t8fsiWjWlTMB4g6z-432" value="" style="strokeColor=#dddddd;fillColor=#ffffff;shadow=1;strokeWidth=1;rounded=1;absoluteArcSize=1;arcSize=2;fontSize=12;fontColor=#9E9E9E;align=center;html=1;" vertex="1" parent="1">
          <mxGeometry x="490" y="414" width="300" height="266" as="geometry" />
        </mxCell>
        <mxCell id="ad4-t8fsiWjWlTMB4g6z-433" value="&lt;font color=&quot;#000000&quot;&gt;产品要求&lt;br&gt;&lt;/font&gt;性能特点&lt;br&gt;理化、生物学特性&lt;br&gt;感染和微生物污染&lt;br&gt;生物源性材料&lt;br&gt;与环境的作用&lt;br&gt;测量功能&lt;br&gt;辐射防护&lt;br&gt;软件&lt;br&gt;能量来源&lt;br&gt;机械和热损伤风险&lt;br&gt;自测和床旁检测器械&lt;br&gt;器械信息" style="dashed=0;connectable=0;html=1;fillColor=#5184F3;strokeColor=none;shape=mxgraph.gcp2.hexIcon;prIcon=cloud_pubsub;part=1;labelPosition=right;verticalLabelPosition=middle;align=left;verticalAlign=top;spacingLeft=5;fontColor=#999999;fontSize=12;spacingTop=-8;" vertex="1" parent="ad4-t8fsiWjWlTMB4g6z-432">
          <mxGeometry width="44" height="39" relative="1" as="geometry">
            <mxPoint x="5" y="7" as="offset" />
          </mxGeometry>
        </mxCell>
        <mxCell id="ad4-t8fsiWjWlTMB4g6z-434" value="Annex I Sec. &lt;br&gt;9, 10, 11, 12, 13, 14, 15, 16, 17, 18, 19, 20" style="rounded=1;fillColor=#0057D8;strokeColor=none;html=1;fontColor=#ffffff;align=center;verticalAlign=middle;fontStyle=0;fontSize=12" vertex="1" parent="ad4-t8fsiWjWlTMB4g6z-432">
          <mxGeometry x="21" y="216" width="261.72" height="39.53" as="geometry" />
        </mxCell>
        <mxCell id="ad4-t8fsiWjWlTMB4g6z-439" value="" style="shape=image;verticalLabelPosition=bottom;verticalAlign=top;imageAspect=0;aspect=fixed;image=data:image/png,iVBORw0KGgoAAAANSUhEUgAAA5gAAAH0CAMAAABvv3KHAAAAYFBMVEX////u7+/MzMzV1te2urw6Ojv29vcZS5S9vb1CQkLCw8YzMzPd3t/m5ufz5DVTU1QGPoyEhIRmZmZ4eHmzs7OZmZkJQZmhoaJCaaS+vF0nU5VZcId9m8Pj1kiNlH5kfKeY7WGDAAA6SklEQVR42uyd227cOhJFWyShIwgkMA8GBhgMMP//lyPei7p0S+2ISdxrPR07jjvw6e3addXjAQAAAAAAAAAAAAAAAAAAAAAAAAAAAAAAAAAAAAAAAAAAAAAAAAAAAAAAAAAAAAAAAAAAAAAAAAAAAAAAAAAAAAAAAAAAAAAAAAAAAAAAAAAAAAAAAAAAAAAAAAAAAAAAAAAAAAAAAAAAAAAAAAAAAAAAAAAAAAAAAAAAAAAAAAAAAAAAAB+OHu/9/nbkZwxwWTfz3cLX/JABLjJM6m5hmoEfM8A1lLlfmIofM8A1I2uMu12YxvKDBrhkZO8PZ8qYmfoPwHnGuYNmlJkmzCzAJZfpHj2EOTl+2AAncZPp0MoIwpz5aQOcTDDnLslfEKahmQlwVjFdOoxBmNNEMxPgZIKpH/2ESf0H4EyCaYwaOwpzopkJcCbB7OQuszAnmpkAJxJM9+gqTOo/AH9KghleKkVMmpkAz7Edx+TGOQuTyTyApwlm1/aFKyETMwvwLIbJhY+7FToKM0szE+CZLmvssneHMTUuL5jqPzQzAQ6VIhPM8XZ/qVQ1s2xmAhygjexgqq/bhfllq5ml/gOwizWyg6nNfHfep8w0PrKZpf4DsIczsvDjOowZLM5ZPQaamQBPdNlM4Aw9xnH85I9dAjVmFuCAoVnz6HJZJI7kDQ9F/QfgMF7KiKW7LGR6YXozO9HMBDiKl0IWts9dyTjELswszUyAY126Tv3+csGg7H9hZgFaXTrxYac59qTHWUyzU/8BELqU1nXutZCZhLm8tmMzE2AnXlopl17yKA5WmFmamQAxoWynbrTpNlCuagezTLPTzATY0WXPRenSJ1lCNGYWQOhwtXLlurpJJ9YxtaGZCVB8a9M9HDq3LLQ0szQzATyj8roU3nGYTWcrKQ7lZWNrqP8AupRC9EFLJJjj3bmm9b8K6m6J5swsQCz7SOPohSp3MNXdoUvZ/K9oK7PUf+CD08uNBlSzKP2wX/cvSg8izRTT7JhZ+Fwbu9albhal/ab07cL88sZZzBZYmpmAjW0XIPU637x/wSRcMGgGZeuQHsDnhctkH1e6nFpd3t+2iBcMqoNVVaQ0M+HzwmUqsshMzh/iUo1O+10wqPuYdTWTZiZ8ZnbZ3sALuhybjzsUYMK/xP8CEI0SnpkJH4nNl8/HRpdtwcX1mTOIIgxpptmYWeo/8DkMYdZnHZB8PVYG0GH66nnBQKSZdTWTYXb4HBer09t/ds902edEXhWmT3at2Uyz08yEj5LlNOmx+bT3sa0uOz/qXaaZqvjamf9l8AmyLKvITSgKtaAmQCrTq42o5KO+xJ0RnpkAn5JbLrI0O+HS75Osuoa/5VHvsptZp9lpZsKPxhUTu8ouH87XQOeVLvv1EJV8bknemp4f6UFDPDMTfrKHtbkS6yNTW9QJvZO1LnsOqir53BJt1quZNDPhh6rSqeJhzcrFxvsFZqPLngZymHfSzDrNzjA7/EhVloJPkOVKcbGnudal6ZvYyXtc5YO5DABR/4EfxmBrrAxv8bXgbBBtMwCk24XMx93xyo3yHldNMxeRjmxmwo8UZaPKeSPLMZzhauuva13au+OV9v61Ph5TbE1jZuGH2ddh8a+TZMka7ebdnRZMNoN58hPu9raJDq+nd9LMYmbZzIS/X5JWe/tqGllOeusG8z7majCvFaqbOggzRGhxKa+M/dRpdpqZ8LcqclgUqeYlNrai9O9vu2MFY3bZll/9Ia4mOg3T/fVZHXVXdktCmln+0xk2M+Ev1OPobesSI6NfXWty+VjZPWUNKoWnZmB2Xuty7lCf1SmJbB4pnXPO8bEX1wH+VD0ObvGsOpR3NhGy5pX7qnwMeq93P+zosoMgdF4MLaVZVY5zmTLNTv0H/vQU0jvWaFmPJBnf3trtv5lHm1O4RrVuHZjGPo/I1GXx0u6kmXmanc1M+CPtqvU1nXlOhvVYkOEP5/lIlFGWIbtcjbrZjS47LZjoukWiRZo5rFczqf/An2JXox43RdYnmjSLJq07tn0lWpo2XIY2iVnrskuU0mKKQDzENsdPlT/LZib8brua/epLuyo1OSttF00+y8UGXWTpVrUgsxMv+7hHLWo+zZNrSw9zYJgdfqse9Tm7Kl2rfxPPWrtFkS/KI6NTU/qm8+o97jb7Jf10WYUZSrOz2aSZQw6emFnomD4O0a5O50mBdFZLjHTDeE72ZUnazJv9kt2GpupUBy3TeEGZbrs1nc0sm5nQxa7WgQBzSZOLIvVpRcZYWU8XbEfzwn5JK8OeupQnDJqp2ZpmltVMmplwY/qogl81FxSZv3COIfKSZPwy5lReaDsxa6fNHLtvaKqOfcOiTCNLs2JrOg8A0cyEX2tXox7b1PCCZ/Wm1bnr78olVCo5Mas23yOdmLW/U5ersz/lIFdNM+c8AEQzE35BeBzes6ui9ZE86/jOq3tRilddUsutE7Q7F/P8BaC+uswPbEhudRQPSBjKamaUKPUf+I4eFzmqi3a1IXrW4T15jDE8t6+sdgKuSzWV5k/c1F2XD3mQSzZNhjKn52JVyCjMLFyzq2PoPopuh3mjzuo7H/Y9QY5xQMg3XKZGlD7y7q2XDHrvcOv6wULdlSlLszXNzGaWzUy4FJ/m6b3QWDyrulRnrWochlLg3fllYA4H2dNF9tUlS3/SoLcu4z+vHOQKpVl57bm0SuJXEDLh3Pvq601JTimLtO6iIlPvM9nlp/FZabebldU59vXhZ2PWXU53c16nY621nsoT8+w+QMbDP8alfJNmJpwT5uUAmad17DCeL+sUNc7RLSc5mqMg/GyQPc+xr6fcoi7XiejdG5k6hehWmeIOu8urmVGtNDPhFwrTvOFZs1HNi9BnjbE6CpQptzyYY7d7A6luul2YOW7XTWnRNKlpphLPuAX4vjCzWM561jQWpC8Wdv2XhVd5+hrlyuz6OQkhvZzdRpe3C0EXR+2mpjRbU06VjoaFz7GZCeec2FPPuqR52p1pRYqpoPmZUT14mdlHyZdz7FZNZu8pfMnGbu77uE43f9IYbKPMYappZm5iOpqZ8KYwS+PjhGcNK5dO1xn2K+GxzASF1ZITgdip44PsbrdJaHs8K0GLAwWuDNqLUyMlzVTpp42ZhSvCrNM6zz1rrape2LjcnQk6X84dxIMStrIMNnZrEbvo8tG0U608LyvOPYf/LANAmFl4/b76Kl5S+2Gdw5MeY+o3qmpVr7dYVBoJuhQzVg9K2Bxkj/VQt/2V0+XZQnqSR33KcolomtQ0Mw8AUZmFl++rJ541DQSVcz1X9VgHguY3h2ZHL8oXB9ntToW2ny7LovRambU0W8fZyzQ7aSZcJmaO9vD+8rXmylsTQamatHqkkD8yuw2n4c2/nioIK5l9nsWnmy6JUKarU7P5OJeXKD0TuCrHnDl+Y3y92OL3h9jTmOBmSnBvNi9N5m2soS/SdnpGpkjSbfuJQe59lfGCcfuAMoCdsoqNw+vveNW1Y1Wnrvc8++UQffMqUPtvrvdkZkP1afsmdx0XOcTO10qZc2mahFpQrsg6ngAPr1Fvx8Wm52HP9Tz2I3Xa/JwPD7LvqtKvfZm963OdR9mPlSnus5c0U+XYSWkWfrkwS8/DvudYUxqr0yT7szg9H43nRVnuGNaQdXa1iqIX7JofqioWtkkztWE3E36ZME17uudyjTWLMU8HPR0PCp/3ojx4kXDLcvmagyJt53B0pEw5z16ip0OZ8CuEuXasVwJjGGOPK17taNGrQ3qzOn5KQh0C2jZJDmYNeitTnhdJP+KSZvqiUDrOTtcE3hFmc7nnrGOVNjW71PPX9Mzr25Z5vcTM2+ZJfMh01zMBUVz1umzsURZl1qZJ2ZquEuU6O5wXpnCs5+bXH3IuSF0aYl9PBb2Uv5hj37rY9NTMvnM1OjrSjTLF4Z+0qpk1KgzuZq0bYCXMpunxeipgTGct853Z/WbL/BKvZXtyCGGMY0Dh723f0aOe/Z/1ztzyovSRMsURoHycKxRv077dzHge7AtTPLHgxPh6FeOJpufX/17y3/M8/2tvfMOTuBfCNOt1zJUyi2qrh/Xfcth9zCdAFOaUd6DHJzljnQm65FL//c+/fgDqleVIk7pVmXHiTu5Ka5OLtKoo0xeq4rYMfha2unsqxtcnep4L8wfwWpi5m7pW5rA5AlRLQS7VqmJ5FmnCYcroJ3BsnM+bvofJQ+xfHyLM3PkY6t345gyQLWXaphT0CEOFB8ts8NmENmM6QmC+N7tezh/EbHVxx/o/nyLMlFcO5Xdae6CrREpVH6JpU0ErNX8mRRkIRO3iy3xLj+KvlmS1+DL7z+cIM4bAesQy/q1hdQQo2Nr4RXkMIo9LLBaDsAm1qPgdtxrmgY4P6H2UMFfKTKednWialECZvqh0dgat8g6rHUg34Q1hygOzL6/2fJYwozkd95WpxEpmHQyq7tXZrE1lHdqEM8KsbnW+drTnE4Qp2pdJmap1s261khmzUT1tnvHgL46luURtMbUI87VdzXq8UuT1Zd75A4QpzGtasqzKlGeAatMkVmxdOm6wesyD9QPGX19+NdyNRE6EeXT09fT4ehoLcml63Y+vf0Qfs9mUTuvP/2fvbHsc5XUwPLwog1BAp2rFU0Dw/3/mad6dECBA6O6C82mm26m0nV5jx759O8t93+qmidQfSH3BRPmTUHXlLDNMaxFM27EnhEepllWbu0zDJb+RwMB+E3ObTPtbq2ligqZveo0t1GZ/215s3Abz2pu2S4QwXO1lJ6sZKtWiIDDv7Ou3fAHMd/cXgMm8pRWZAjo/mdoESF0t1d4yb5+EgLw2xcT2Zoemy5avWrhOwSqEv0eS17V/BZiwBGSTWUAbIJbDJkCzB1YKpjM5K8tr5VQrKwlh7LzxEaPO4rIoWNwrQTgdzKavn83fACYsAZU2mZUhMwdkKsQIlbbQKZ3941jRTMG5uKIQz/VghLYD1nXxgCLoC2COdft3gAlKQFIoS20jaGMwUhVODzPJSunesGCnQirhtasSW/zMXvtUToZ6SCvrKoLy8zPZeng3fxRME8BMCUgOm+Qeg67MFH3ASAmhMl8ts8WaW0VTWbAt0qxCkdC1iz9FhGMtRdA1XXp+JlvX458FMzOhjzqj0pX1nSCTV4NEdLUbJXyhmWBzORyqgq1sp2Bie5d2yXb1eqEbnk4NKSqYvirP4wOmp/zTvb8IZp5Tz0Wzgv0QSKbIbL1mXKwMy9/YMl3pkHyeqVVCKBNCMEGjsgzRH9CoWavVJWn5GWpGJj99Y9Vqm+9FTOCqThxJuy9mChols5MWJr9KshYJg3Nlb7C4dYp2CsJ5TzAtZyAxbBnSi4kIZj9A9D7f1tZ5nlarDQDTSF5JNjNsQlwyE8mwp4XJktVUVIPWbMr4/iXx20Ey7wemnCVJttqvRwSzGe3LZNO1AMvWrgCNdfv7VTCB2Z1xy7OGTUpApsx9RdDM59QFlSCuWO+QsIWFuHPz2mCaHgn3luQ4bpSccHkQqZgoIaKIvRvqwclPH4ZL518+zHbfBRNcF/XFUkraPWSqJ2vhD5m9Sqaqk0KXpT8ES7SXBNMZfN62K0jp1ylvhJbGfz1eH7N5fvjrG6cmK9PZ0c16o9ZqA8E0dCUOmek8mT9G+LN4lUwLZjSR7t4CjOdfbJfAuectixDUjqB0VpAQBcyGn5bDxo+pACkwG/u5IwuiznPPBxOIeZyJTCXt8ZFJqlTNRy+JlHWPpOT3TvzcXv5Ua8J1kKFKT8usLB1Xy/xESV7fDuxwAvlXbW+uneIMna7VDvrJ4qu+OR1MM1liOpqZj0xVIsqc/Zghwh/xG2DXzuKF2p87HzlIIlG05evB6qD/4pRjrfKr5pJfJeuxhTlu31rPHfrzIyacxjQXTeodNtFkutvelbigWFXC8jKsVCKkmNneBEYzSCJ914/pZWPdMUfA2qjrPM0nk/1ExG6soV4WPjdON3NVKwsEP2bnpbpo5lDSrha8V8VkCx/RbAZ4/pBKZbZ8WSnSecUDVzuvzVdu3QL/X6zKjwqaw9NcG5unIK/pB1CvbUyAHX+b32+AqVuSBdxwrSOpeCTLgaUBw3a6L/CTqnJ331eYXkA0VNTuQhQYXI3LuUVduwXsrEAhi7ux2iVcE1u7ddlRktd0LdATNNOS0PnTJVnu7pQ2ZEpWKTQbUb4i09VkCZeps3tkmoWU4vi85ufe+Srxs3wtMGMJ2LkMwXEliSYwUC3LB9TdGVEB1MZqiMevDkq7jlz8v2+Nl1ArZqrlCL5aLHPHLwutUl+3eGF0pvhZRjAnFkE0SXy13WhgqppOyPDlpFb7lXlMoMUzF83KI5zVe+hF0PTtxZb9KDUdHXaNxHvmbcHU6W4pHYLomkSPxspkB1aN/dAZMHzZsec+eK32q4PSn1w1n3Q0tdaAAk51RJUtzIUOJvcuKLWxCNr+IJj+2ecsBMf4YI6ikjNOxD++7gqvxjIl7fhdMGENaHLRlMJ11+WZlmoxwlqVR46coPYHwVTjflqit/3v9TEwOzPFJYQCn+vjqji9aUXlltVqV4Y544BJK2/jJDN1IfCAu7RELftiTZKVGS/eIinCU1s8VwHTFGa1fr0iZF/2JNUJ6REun6rU2vSqedm8xzXCOjWY2XRjbzorB8bAVpU/QIJuZLLmokmhkaWQtOcloLlS7s5pFeDkq1okRYl0XhxMKF/fPk4iERQaIblqU+uEDvUxB93v6Lp9kc88uW1/zwMTYkay6UVTVmwFqiq3hQMlRCwUYqE0CDaZ2gZXbfH8i2DaLj2rFCZikISZW2oKgUQonoj9XcezjO2GYb8IKETEDjADjRMtVPeRWVrzJIle9hUaCRPewXy9hFc74nmrQwCFEkFXHrQoSzgC5ljX0fzv+pCq0d47ZuHkpkA8m9lx1JYauFOYhC/70rPRYQtjgPoHpT/XZJAQB8NyZoL6S1rZtq4fsYRD7REdUOAaPoCZaZzoi6ZFpgqq5aTgw218eP1VXiLD8OQ/hWBeK5XNjFA2KAqeDqYYpGTCuuMzlZ04A5MbiHMamDBomsaJuWjCPoq6iX5+hnijoF73lQYbVGIue63DB6WjkegMhu0Bs3uM7HCtD/9qPCAUGIdBeenxL9rnaWDaQTObTIKpgm2l0J2LmuoKafZ94fTlHcHMo6FotVtKZqa3S8TuzFTW44EaUDfa85nPE1JZ8wbCoOk4/4C7p+P380lZk4UklS38KvTWEsQTwdxlM6ukCOqydXz+8qAHQQPHrNtd1aS1QekMviEmaJrGiXvRzJwdfPOrvlRuS/nNUyxGwAIsgrkqCjJWQf4yxU4wzfzl8VlnYHM57nutVUlelS4HTWM5Qm3tAff7kT+2lqwS4yCLw9EIpj9HZSxyUdDah2OvJM/MVB6fddZkjjvLSAFaWQqGvmDQTHPnolkVub3pS/r9sLe5XFPl/YCdX9KVC1XtNwMT0GgUQZsdZvdrZbuIw85HXytExG7lsyBoUpdWVQKCigQeCGVOS6sg5Y+cjpY3T4yeVwfTOBDIkecdMEYBs9eZbBR1gZzPPC1i/tijJQC7xLYx0FHUUsuy7XqSzfDVtASMU7MsBuu2V2uX6BXlxn/gYIaUKN3ebmuRqf/dsSHrI68VPI9Z5r6bZuY+5Bf+CNN1vc4w8BLJx6mZ9OcTPSl+mK90KsHiVtkI0eJ1BiDNHPX6QeUP24fw5POXEWYqtZfe+HsqmCyfzT1Bs7KGpX+WhD+m/MoV7cH9Ed7zRDBvdbRqnVI5PWJUs7l9oknymgfwvzvKpfHS27nP5H/hbjpWPlsZYHO7b0J0FKU+4Q/VrgX5BoE61oEuiyCLgVwrywhM5ZmYrm/R7O0FszX+d0f9QeBrPc8G0zHlcoOmEZor4U8+oy4gYieCGVbHO+T9UlkLv4kVZf51raxtend4N7SZlu76M8DMnCERYP0DgqZqWOpH2Hj0qrpASwuEqp3ntsjnPU4aWSV7hhP7nz2rg9JOQpoAk1mzMLpyLUcAmsWyuoB3R9S4ZpHiYgQEE8EMGpTOnSV6RgoEzCkTtfMrAQjr/GTVe53VX9WyTPZ0VM4imKEG7LK9Ls0tmSQhvQeYVmh0WyfAEk9ESNjB5EsR2FsnXHzWlTwyueX9EbmSD/FEML0wyn0IjEShDgITwztdRbpzEOvOA7NwFrZDKZAbNO0OJhEyAaUaymiAkIc75smdXzK5RT5vDGZuK4O4NGhRjrATzLZvTgFz7JvzwMwdNE3rBGSvtJjKfkQYLHMl/QmejubaH20VVFb4Yb4BmHZJVgdFodEjpxo+N+9oa0ecgLlPLhu8UdqtAlVqrCufBs00mdwhQX9EmBaG3SLZ2EnKxD8oMLgmmNPsVOll9yv09oH5rNtTwOz3DZEFb5Tm90diQzuxGNHtlIz4C7Cp0v4Ia+ig1Jb/JHr+XAvMl3GV1ffEWDeWfalsW9fvE7hkllx9fDChpGCSpSYGWw2iznHnnAuI1R+R85eoL7jZqagYcz4qXP9Rts/icPEezXeVfiLutrTmMpm91wnKH1Kl1i3A7p3o1glAVguBFkxFuPiHZkZ0VeJ4NB7w6YAHQic1s5bZ7ME+prSxG+sjnnbzr8vGv4b39tcNkOQBrcD0AmlaJzpokqwMMhUB2a1okLCyLcp/7oFeMo10E+hy74ktMOjGtlWedvyrNo6x7MHXDdLKJjaaVig0rZMSOBcUoaYiOrt1pe0YPq981NbjvezFVP68I/rjWWS6r3uGiD2BJga5vSnatE5MMIWynyys1UFkg0R3SMJdZ/H8a8cMSv95SV7TQH+8eN3M5vc57Pfd2zCPWYI/ZXbvRLdOoCUQNf2UkFVfMHzyyVepbRebhTB8XgzMv0orC9wmxy5iAagxZrWbWyYbxr7M3XG6NshcNUHDkaaA5UBPEat2q7PbaWcUD4I5MzCWvg744zWRa7KSzHazV96meUwCuye2uF1fNa2H2Zov89YVWyuvfJ9txj1JUPmDYBaTtXuiSMTqRbwTKt0ts9/dITO6+GfYa++1CUyeoIJ3yYpjSep9WKz5Eu/kPttYfvnEXPaGYDocKmUQt7WklSNdB5naDj2r9rSLLfuRp2/OBdPtnlgMaodnV/jDh0YKWG9L8eaIYC6jKDEUuiAhXA8079oOJjeBFZ52cVPZD/DD47EnR17bj+lTCRgA3d4J2Gni/lxi3H602X2KOxFuW5Wd9kWkPC+TDJLduiC6J7C1hzzt5jPZz+uyGtDmXHZNK/sqfXUX0D3Jnb3u5ZLfD/ddYoI8OEqAjZH7HapUsnKIK+pf581gNq3YisD88aIGTClgZzWgPm5VNvOI1yWaoOJKfWiyPJcsV11TYzbLpzW5ph0D6B3Omb/lzWB2qnkZwR/PzmR1BvsY40bMdD78ge6JPRJGqE51yxVLEQVoaS4XJZ/6wfwWz0wl0NXQKvNZqi1oN4vYO9BkjFr96UDj5AwwWcKaVr4Srcf+5wcq3z8/F1BQZe7aYmOJmdjE++ddALMYq2zGpIS29J3Z4tEdzLjMpHnuNXCuSjOU6YyEyX/hKxFCASNK1M50P9z3h8nace3XFe+YMyJ1dMnbCObckCUo0dpBldAUuv1siX6JSnBfOr9FgcHFqrJoXxkTzDxP6UKJ1nW6BMIf7pOXVdt0P2CmGq1FrgUm+srG8vwB0yJktkT7Addhjwl/pE+ebI1stivg66YxYiKYXwHz/Y4ml236A5Mqa8qfBCyeXchoweyJb82XCHuglYzCHwTzDAU7Vwy9jtDURtSxH3mtAEleQtMJmtNaK2uSqAqtB9xEbXE3b2WJnREEc5/vuvG3VLI9uYiaK4ayAyx1Eb3yuuHAauogrSxJaDnNaCcelbBJUs3lpGnp00QioAimz9PAjJAYBDON4FzJ9wBMz9272b1Cv/15cbCIPYGW6nOWPsxTRGW0s15cLHry1pS7dU15iiCh9wHTxtAKgUC7vm0N/BEw2yh73vXIyuP3dDBZZ8QyMRCygsRTBzL5brIYhrnVj5b92I55GEEvDiafYTAIav6OO1oeAJMPTLeRwGSOsu1XwFTDlRaaCxktS2mzVXG6kv2kpbuqgme4aDl7yUNOzIt2gdk/P6fnJpZPfv7P3pltKaqDUbgZi7E4TNLq0vd/zEMmkkBAZFAb93fVXWUhCdkk+aesCJql1ypJttfv4ms9n4/ZW9O6xhVttCS2gFXLs1m0VbfGpdE/SJQG+wozv+k17c4ryrKX/Wu9RJimNe1gzepr9X6IOJ+Y+eQiV25DEWBw5Mmzj2VEDVbv4ai4y1axZ73W5IoF7emy/lqLhEnXtL2IoNS07HVVM+7zRyHQ9E06iQYQ5qFIo0lWOTIXBrGffu6La01OXqs87XDa18ROgB1LOxnj7lss7Kcz7LBjvp4PSoeh9mirzU2j1jeK/DmVt4W1JifKey291sOQPHuitkBvwRqYskj8tDO8qp4WateBZ+RrhRl8ZEgeX4GWW9hlz+sKYj6OlSWB6+ORqpZ+6NCIh4QW/FHlKauKQKEQ5qcI8/q7tNikYZu58lqzgthJZsj49tBXiscG7njVdd8XZtdBnBWP/kksVP6BMN8nTLIxpKcAbRBjQB0vv8uv9ahK3mSgj5wR9TXtw/QuatRJ2LlOUqAi/IdFuGMOhTAXWH7WVDC4EQsqsajmpy1WsufL9ba47t6jg2v72ZijkiO5l64ybybzJj/iGhG+kV6SADvyGwFA3yzMafsQr/7MYH4T4laxF69kiTWWWFTXB7JfqTWWVMRcWEP6GWE+WtRaWpl2clrJE6Ki3qs07Va67fPg1UVo5W3I84jCnCgsIgPXhfSk8h4UnV0Yknc6cwvq6XqTEQGX+UvRy/Ui6+Odafz6qb1WuctS1vi6Gp8OLVrTWfmks6RgD3NfioVuRQSKzeexhFlJ9anaS1MlbH3pdmZprGx56YIN/koXyvzQ2ctZJpMo17ruIUyL7B3N2hybDnv7TXYcwsIuljFAEOah8BX1ba/6xWEBpr3ibLPq6ar4WU4PLrs+8sdPE9u8+I9GK1Pqse7daQjLba4wBYH9hWlOnJ5vVr1vmGQ9O1FaLT+ghdlZ4+JUHJddQLrd7hIgM2DtiLOdPE75/HADcjLR9bXCFEtUOzCsa6PxE2l9djj00LDGfSKwuH6tLqP93JjRhlXyRnMqL6aV7Ha5nM8eXEvO0xtKk5RbT6csOYNT+ALFJeIg8OcLhfmZIXlqtbwrgSSD3a4MzRuSa9ZYyvm3++zfFwuTbfdoQcr+oradOCddGqQOPg3Li4aGclZRAoW5IMwPEua1l1N5U4V5uqtT4+X+u10u57q0L7GBHLpR5hxUklKJ2pEW9tPVChKrXMyiEOYbhdnLqTzrZbVuepktPTP6/vKl7GADOfCluM8UdGbpltQdop73pVYWQYA7hPmmSuxqTuXvXUveIttJLWtEzbK+bVPMa7kwxaYzMvhRnKczoknSOo374afa8sifSpS3hDghzIdBsmtjZUdLhPSK3ZET3HUzj1TxeaPql+uEKcy18gh3mRJN1rXLwwpE/GzEJYojEr5TmFMHgqkFZ5Wg2WWlRYyTJlebFOGJQiLUbxf+b7HyvW2YyzmjgsHcjiabzsG6NlhdyJlNpK1IEfnzZcLkmlPDZBN+hKbwV/oj1S63CzA492fB8kyhP6TcLyJ0T8yYr3GXJHa7Z7Tmisi0rnWDBcV+wNGFGRmEl1rbFJfdTJg0cVrLz9Qrdqn17878o7fLS4TpcHeGMzMY3af2Wm5s1dSJg4TAgqXYO4VJVrK3K9HiXU+ANthfyUr2Tv0m19cIM+hFo89amPq8PmxgOAeGlRKBQsHHC/PnRrwkvZzKk3RwqvbXnPyPJHlttZZ9RphyYTpPnrQSqCMyoNXdPBEo2awnOKvkSydMa8d4zI2E2aqMVYRt94+56uA01b878/zLy3mjteyTidJijfrMvtH3ZX7lMOon4AV/aGgeRPotk5qhEoFqWG1HV6JtPFVjj2RfYZZiRjxpEXg/t76tlgT/dCq9X98jzE6efHH73JuPatSh7kp+FEJVMXdlN6fSggU0U91H9M93CPOxa7KL3NT8I4qQO8ttS/SzJydRS+/291Eu555WWfexmyla6BThrhBa357K1DUF/9D1Lo4W+hJhross2DrAYNy5eT+vKBm7iR/T4ZE4EzWR5Nl5a6pPiuAfLlN5ZTafIsAAwnxtSN5oDO2N1Nn6uW+Z47Uw8ocnbkVGM6u+uN3QKWJ18T/kq3F2CYT5GcIsmdXndL3d/p7eK0xlf8jSQib0yRa30baVJ7HZhDA/RZg/9zuLwztd7uVnCFMRKK+o7k5uAgKRIIIsS3AcYXbm19PP5eejhDmYQtWTZk3lelnsFcvggkbBH1kW1d2U7UuLvI8Nsks6hQqJViMHrGlZlkiF/mbSgePDgDN+UG1qhPs7bQjTtMq1UmFaVU6EHli6WfqALfwhFmILvovVkepT0zGEOafzU+qrZLZVU8UfLltVpwnmUwBhvvY9yXRKQ3941R92CEJVDc6vEPEFKHR51AkTM+aHCHP4eMjCl0f/cI+l2SAAP+ahcMzFB3qp0D6E+UlvUrZNTYVU2ewJYR5LmNXYKV+GMgZRLzC2Z+sZzL7fIExrg8OX1mNhKXs0Ybrbxcj2QtudxP0CYTp6aL98cak5OW8VLfgeYc6U7Tf4MZ3pN9bwjFHtlFG64IBqwUuE+aLIn08U5oISg7LIIJOuVKzl72qaAxDmtwtzxV4h6OZaOcXud6IpgDAhzMV7+uEZ4CTkAIP5yFbZTSNmm5//DsBM48/b4KEHcJccimQ6SnYd7t8j4DzowA8BFQzAbKz3469muon+x4DhBgAAAAAAAAAAAAAAAAAAAAAAAAAAAAAAAAAAAAAAAAAAAAAAAAAAAAAAAAAAAAAAAAAAAAAAAAAAAAAAAAAAAAAAAAAAAAAAAAAAAAAAAAAAAAAAAAAAAAAAAAAAAAAAAAAAAAAAAAAAAAAAAHwlvh09IEEnveAxOEFT55S6qY7X51VJaPxdvyTJ2+8ocvsIHWYV4UNs6GZnVQZlloVezPG8MMuKvIos/ygtzHnTSmvHL7Ez9iVhdYAei7yHxBWks6ssq4z2s/IqFF1fNOkhmuiI1sXljt9SxqL3nH+/y9zHE2bsQjx7Dtoi9sa63ouz6AhtbGQL93vT+FksRmz973dZAGG+efMVxpOdXxxhOZtLYe63e3Yy8S1eDmGCddTj0yXr/Mw6QitfIcwUwgTb6fJR5x9ixqw6yWQ7NqfolrLNdwgTxp/d9l7xw84vj9DOJHyF8Sc/kvEnGJoCB0RQ0D5E+jpW8Zd0NlqvPkRLa482Ks72lEyS0a6L4/ufAwnTyyozjetDQrtgZZou47AoqBu+KLL2f1yjB3EiV6RNWblv4ESaky8pmj/HEiaU8s6FbJw1dspegX6aOk4QNDWJlTlKY/3Etvd3ylqO7RxjHoEwP2LC9LzaQo8ACPMj9l1Sl2GA/gAQ5kes7TrrfjtfQpfgU4XpUz7gyv5+d6L1vIyOXWB6fcktvvDhWzYl8R99zpn1uTc/25cL02JM/M7v9aPhh2nSv4DvVHlB01yKIm/MOU8Je3KKASF167IoyryZMCqwK2chMdaV9WQ2lZ86jl01eZmxGynryplprUgdl9ivA+cZ64YSW/BcdE9qN2XXpMqZ+bcW7cAk9Q0Gk6Aht2/PMZm2vdRexkks033RXjD3mj8+chI3lylOWVG33WhUThIonwuL2h1+zjTc1H7LRb/ls5+tn9gVe7jWxwozbXVAMRgqIvE71bwfFIMfOk2ehaXWdVZTUC8X96XGcVZWg75Nhf8gYx3quznzWtE/qM1jyq+0K3txWI5EMVnVvRUk9yF2NxJnw9w+lyVN5o1sUZkJB2Q2PxdQWck+Fahi15m4Sdb4Ih/6Bm1+kzUffWlVFrR1Yda+nrTbaFUh/KfhoN8r0VhftpVdp32Bak1tv0HphYHnu+EDYXivUd5e0FO96bGXlU0ybFLvc+SLylq9niPGoCnt05H9xkfZ8C679lby4RahbJbzocJs4nHnWiF+p4aQdT/MOvmS3vVi9e+rtsP6ORVx0e80WzyTmPwmrYnilD8wpuDZxfDKXmHYzlnkocWeZ8juCEv9zZp2UQABe6mQ8egpn89nrpMS5dvme/fSdnh6g3vMrYHoRf4jG9O0eaJvQ9m5fqP2I+l3W79HcR3avRV7elw+atekud4LXq/XLE+7IbU9Xmzq9jjTH6g1bDdvTKWuQQQDBZG/H46F3l22g0wb4ClVpfpw688UZrf48prR939cKIOk6BrFZqWC964SfevnnimKO/ZqfYA73W+CVpZh/3F6hm1aZXqW7c+G0qnjeCLxSh+rah+0j3twI3Exb40UxQui7uzM1KT+PUpHDHmoSdkbk+0tN3xBkfVvPw5dY6fnZPnj9QOV+NfS91r/jjRtWN0vyhntYTeizYWjn/MUEXZm7oEwk2Kk3/S3tCvGoueScgiGh1v6/64w/RFhurJz5drNKuLRIFHfKEyvGhFcPZjfvVlXbim9yfyO1CjMisz13uKwcxldMD97MArHhmcYmYVZ/GkMf8OswLZptGoGYtnpdWp6gXpZwpY8Y796IMzR9pAWOaouxx+QsvoaFaY9llrn6SO5s8d5tt+YR1l5LGFm7XtbaWcs0nLSIp4Zvu1I84BZcF4cjAz8x8qsvek4ct8gzDAvR+bZeVvG7mUwPxZ5chxHJmG2W0pjb3nt6rn24nDkV8NOL8wPKi70Bzv2fjIL0xlvz//sneuSoyoQgFXEUtGiUCje/02PmigNdCNmk5xxavJvN4yRho9LX5fpCLR8kh5L+LoUmBUd8sq5RhXliujV9yI6vgSmv8sdw6NS0RXeBGdgKKgAKXjTqlNxjiKI12vTQR6ix8AkR5tnKVld8GCuYzdLhVR7+zrwKRKUsMi8CUA4QOiUNGf6MNqegTkLLIIiXpZVqh2YbwSYKa79nRlasLJm2f2Psn5H+bORjvPckKeZa+Fpnn/480oPHeB6RBFzKChEoAmCHA/i/EV4xpbZXOS4AOGGh7SoxaaU/PQd6RbufTKETj8HooWC2YM1TnTy8XmOAgfn+8r9BtJOFSdgNnNabmDCtpyfz7L+d4EZ7CnNYynzFKubvAUBBEOmRCDk5UKFHmSFVFZro8DaHsbrzpslYZqUMZvRyqjJe5MyBeZmWPFAzriIDOD18hQKWnhqi/Xj2w+qFJjRspeQY3VB6PRXcMFBwXQbIZ91NTw+Va/tIn0JVGjO4MunqB08buBgtp76fpOb1wOwnsdgPixSPKXL+DSYy7ka+0CT5VvAXO1U/HFrs8AnberH7dNOYHMFAa8sVHV3C26tNhPHmjcSMKifXShbd6bhvj2zbBkbR+gRUo4aPKOiwFxfZDK61QqwkJMOpIL3tCy7JzieSjNswmIWLjYTBeZ6mZxM29qJR6aWVY7B67trVwDmZga1dW0k9pzJ1LX1xDAkwSylO2E0kRtDCaaWi01NtSPAhJ6PnWKb3AYLegBmbADmyu82uDOck19SzJ4FSntHhX8Gc7OizaYKRMahNaqXmL6SBdbFw7Kswb3geC0N7goVpt3jGTQMrrXGwVxfZMd+dCemnFtjfxVM108xMWCB5cjJPzjIy+MldRdGgD7HomjA/qVQMPnqPtHsNq7Q2rvn2RyA30SVBJNljsXQ5aYlQcFkYOVyL9QAZbVbdj0wV0Nt/ZQbA3R/KQnTWWoRePb4VzDXodVVE90xAmW/A6JzQ8HgdDIVqlJ17wquFS16HORyzGEh9mUFYC7dgS/itrSgP/izr2rgD3ACnTI4dhgMzEVaYJoqz8dGQeG4jWnGwBQS5LhtJu+qAH/hyCICrdUYmH1mkgYmclNsoWC6SeurbcBCpzDlj5ig9xG8dY2/Csxl85WqHdEra3hsr3mcBB7MkdAzSkaZntzEDAzaQIGSEc+BTacBLJ3aH6LafdVeADPPg/1QLfLQT2jm0dYL+t/53ooQtZnhd1i3gwGtrLT42K3jMRJ2IJOUpEXOI+gMFbmCQsF0RAXuarMIVJEQzOU2WxZEh9lvAnOhsm/CP9mtudEa5OaVjZ1Qot92I7wbtZ3BLzBuutmXY2x0b4iAGTsQuVU1w9h1Fcz+sA8oyoXI2fSBg8EY3lSP3w139ZHTYPLQ6a/CHQn84cgF0+YpvV7aMRnhcwRv+cf8cw4GNrZV8QtL+n3ARNzeG1JkTsLIqSpOpunOOvuiCBSYA3FvFDmpR4+0azPq+RP5DIjPgWkFdUx2FB57gvsvRfo1RA66wI+vjISuqUWIR35OVXxXRcHUnBx//3kiVy+AgVnT88btpX0EZk/bnb9UGeVLYCLn8oE+yhxjIaYMMMtIZkpQN/XDBTDrZjenwLS0OSlDpX4VzP3ZyOXYrQf1OZiKBNOdDzLALGgwGaYmRqZT5S4sJqXVAd7+J+lXMDANPQVVNAEdmPGu6FY08yPAFO8BEzmXHwMTx6oMsQosASbQp9u0ogTM4iwPDvUqmOrtYCpB6nBNtFG/BKZbhv4NTOwkhIE5Qrv2rBkVRllC01eiHQ6m4qQyNdbtpcBU/x+YAvvAafNeMNtDLmNBn6qGczDBNV6He4ghWZNxrNUaBNzCT/KO+VUwG2TzjibY0dvXdswvgwlV56thTk7K1Fg0svLbdWu7qrwIJhIX0kcVFX4kmERe2ar5FJjH5T9ey46nuWvTFTBdyIqYw/44jVPwSqVWIJ2r78T3k8BUyBDyW4LZ89Catlm5oxjpimjHcsA85mUstyG6vP5MMM/t3J8BEzlkuDly/GEKTEOCGTtNuC/8MEsl+RHgnrpovx/MrNuuQy3+2aoLFVr3ANNzYgfQyTBKXuHtuqm+AGaMk1NDy5+9Y34ZTEMOLThwvgTmeO7DHdxs8eC7T4J50SXPdUknwJybW4HJ8LCPZXn0C08PdLvxFExOmsdg1OofmAVy+i/eDObQnYPpHWWVyFZNvwvM4X1gOhPQzcCkyFxl4hFHhu36iRIQMA9JIBasPzC/DmbGjgnjF09r4X0AzAaPKH4FzPK2YBbjTNweAjJLNDVQSOYfmG89yn4UTLKCmRcOzAnN9AfBBK6pOV7RvxTMNZNQJwQCXahF7WeJt0sHSh+mtD8wryt/5tQds3oFzPOjrFQDcpBdszIa95k+qJUF3k1d9W9gjvKmyp/nFdnMD8XbSUAyszMGMXC6TCp//u6Yb9DKItbGF5U/luEfGDgAVmm/UpT+JJggS16Gj5dzy4l/lt3UXAKGoFpzd3denDXmPVWyNm6nXtbKdt0fmAiYOgvMDM+fhB0zZzPSpFu6/SSYY8cvtE7ZMavbg/n4u5LpGVxCqIDkphwsbOdCA1+2Y6o/MD278S7GkXzaRZe8p+M/iMDOiARQnBLAR8Es3UE5xzsw4fnTdm9xyfu/wXyIF+hfy6T0RBwfedHzp+J/YF70lT12kywn9jHKVqCuBHdJTh12PgomvNq2+a0/5yv7I8AEmjgx5l263ako6Ss7JXxl7R+YULR0dAm7FF0CAhJZOFXPhdjQeHwWTJB6IMNgYgR58FfR+eDGYIKYjz5TeaZTYFo6usRcii75yWDqt4KZGKxjzmbFY5rI8GBFvo3wsPTHBS8+CyZIL56R79IKSodbxo7FdwbTCT19jqjjOGsMTE1qeYspCn2+K5htYuJdBxOJ/4ttfCYDzCnyeXQZDPip9of9X2ACV9EMi0lLHgIqnshg8HvB7PPApDMYgLwpw68BMxyNUaF+LEkwwRHMEjIH+S9oMKvYQWe4kA2PBtPlggPz+41g9jBj1hmZg4uEGwm+kZw/tz7KVnkAd8mjLMilMlB3fNncHMyqwxMbMdXxF8CsBZ7usUxmyYuugmDjseH+nZEohnrwWIOMRR8Bs4C5XOVZYr2ZeLjL1CnMbwBzylP+gIwCSeUPyA3m62XbLpEl72ZhX05jBlJ0NmvlUdxF6gRMkLwKkllNybyyIRAGqzNpoQE6umY2sFA4ftbxUilD2bwTzNbPJRmU0huGqu17FnfJy3tsMbf8G4MJRi5pRNI8z1wC6tIIGLOik3llf1YGg5n69LGKWnRber+yXyvIUr6LJ2AC53Fx5KSsIOZoJnY5m3onq2lnfpaKHCQIHVmvjZonCWB13uRHaciyVn6pHHAHfCeYfkCi2LJ+Pz52rU8vt5yfZdwlMT0TZ456Snf/R4M5KNuyoAqqK/bnXKgHY8I664MCiSaTDgaLLESUg7PRoKQSlon9BqlFYD1omOZ3TQUxT11U2/MKmMB7fJHI8rwFGRgYCd3bwVV9bSHlumKszcFPa4z5tVRtt7VeS6PspYMq9EA52XatutDFVZulaYf3g+nXoePAa148y9iDMnGgS88eSb/7/c3A3CrdraM+K7v5Js9w9N1Pqu0/tyF8+DArCWoZAVM1XrvEQrnJXW4cmzY/FEz6E9+XO6Ru0mUw0fpq8H8qDEwvaMSLACrRdbKLa7d5E03xxDtAavTbwfQKBRHhacejxo5HPSLCMW4B5mbHphJMgNEsJRIcBJbM8QRMbyogcgOeB3cDUzrb0WnYxiUw0+XiPMPAaUU47guz57mPrhNVTWNE3gvmeSgo8PTRyZKfaH3Mnwxmz/NGk6Xb6eIEzHRxPbw+5t3AbCiQRCdfATPKs4TvFVlghjDY1DSGE5ZKRCK48rD5CJjL36TXOpjNT9FtBV5R+ieDqVLjA1ZOK3JHnaoonZAx98q+3RZMT48IxThVhr8CZlFTJY95MLnZRS7XYUpAP3vnSaxaoJB1weJqne8Gs9BdctMUECCSTNHVxS8C00+amqgH7/ePAjMhN78c408Cs75yx0QXn2UK26Z4EUxoHPFPGLa4ACZHjCJFS1ch98ONkXHb+rTWpuOfBnOVQGKK+o4+lgv8vMuKy2Cy94ApaTDTmdjpk7m/zPSJdrrIAnNNtoaf/6siF8xvZ2Lv+elHdH4XvdqLvHvo7u1TjeipYCaxP4G2SZVWcuHrfJaHzqygweRensm1vURjjUezzmxft7P9e/LHozGdl9iSO726evzYVjTaPMDcpRKDucuAX6s63GgZa5z4pqP1CtxtYpi7UEO29D4s/FrK/UXmWN+2D8kYg/n86mCNHVMgBnNvHO+Yxx+BHRPJ6NKs1WNFoMrZBl8NkXhE2OttkkS+PPtYRfvAMHfxLJNhyYV6H1wETHN89x0wy1mefrw3qbbkK3tSnGmv8jbsz4FWXIM+IUZzNXu4Z8pJMdpBh+tqrfDdwfaW4r7Us3waSB5JKeQ0mz5u/Ugruz9v1g2Ae9p6ME2PUSxl9+xT7DHGpudX08VKbU2vZJhuaJGCZogLPlNT50tLx3l51fMlu2j16OkhsftX1l2/9+dEaeuPoUXi1ncpgDqxam/e+t2eJrmtQfsILfPHxuG5vVnbdaDd0m0TvVO/y1+VqNzcGD9mTfRD7NnfDqk8XO09mL9TH3OZaqef8PW1maflMyvTx89Bn332DmOvjXmUlrftgJv8oK9sydrnHxhbpQVVVvujre4Z2Xbcn6ej7PsDY2w8EBmrZ3YSDLDM7hKvqZ5iXd/iv/buIAVhGIgCKNQyC4kLQej9b1rRVAtNggstob63Hspkkr8qJOfU+P05TnlYhW7z16pN5h6j3v56Kvkzl+qxaZyoj8rjNIzvvS8+kfCsS/e66VVXXnZjbY+NXM+teBLS9uaZb2zujqKx/p9oXS1yGNH/xsP/BRMEExBMEExAMEEwBRMEExBMEExAMEEwgT2DeTMM6C+Yg2FAL2J5hOEahgEAAAAAAAAAAAAAAAAAAAAAAAAAAAAAAAAAAAAAAAAAAAAAAAAAAAAAAAAAAAAAAAAAAAAAAAAAAAAAAAAAAAAAAMBhzaiGJYJ2nim/AAAAAElFTkSuQmCC" vertex="1" parent="ad4-t8fsiWjWlTMB4g6z-432">
          <mxGeometry x="170.0003311258278" y="16" width="112.71523178807946" height="61.258278145695364" as="geometry" />
        </mxCell>
        <mxCell id="ad4-t8fsiWjWlTMB4g6z-440" value="欧盟其它适用法规或指令" style="text;html=1;strokeColor=none;fillColor=none;align=center;verticalAlign=middle;whiteSpace=wrap;rounded=0;" vertex="1" parent="ad4-t8fsiWjWlTMB4g6z-432">
          <mxGeometry x="186.36" y="77.26" width="80" height="20" as="geometry" />
        </mxCell>
        <mxCell id="ad4-t8fsiWjWlTMB4g6z-447" style="edgeStyle=orthogonalEdgeStyle;rounded=1;orthogonalLoop=1;jettySize=auto;html=1;entryX=0;entryY=0.5;entryDx=0;entryDy=0;endArrow=blockThin;endFill=1;endSize=2;strokeColor=#007FFF;strokeWidth=3;exitX=0;exitY=0.5;exitDx=0;exitDy=0;" edge="1" parent="1" source="ad4-t8fsiWjWlTMB4g6z-442" target="ad4-t8fsiWjWlTMB4g6z-426">
          <mxGeometry relative="1" as="geometry">
            <Array as="points">
              <mxPoint x="40" y="871" />
              <mxPoint x="40" y="549" />
            </Array>
          </mxGeometry>
        </mxCell>
        <mxCell id="ad4-t8fsiWjWlTMB4g6z-442" value="设计开发&amp;amp;设计输出" style="rounded=1;absoluteArcSize=1;arcSize=2;html=1;strokeColor=#4284F3;gradientColor=none;shadow=0;dashed=1;fontSize=12;fontColor=#9E9E9E;align=left;verticalAlign=top;spacing=10;spacingTop=-4;fillColor=none;dashPattern=1 2;strokeWidth=2;" vertex="1" parent="1">
          <mxGeometry x="101" y="730" width="699" height="282.5" as="geometry" />
        </mxCell>
        <mxCell id="ad4-t8fsiWjWlTMB4g6z-443" value="&lt;font color=&quot;#000000&quot; style=&quot;font-size: 18px&quot;&gt;性能评价计划&lt;/font&gt;" style="points=[[0,0,0],[0.25,0,0],[0.5,0,0],[0.75,0,0],[1,0,0],[1,0.25,0],[1,0.5,0],[1,0.75,0],[1,1,0],[0.75,1,0],[0.5,1,0],[0.25,1,0],[0,1,0],[0,0.75,0],[0,0.5,0],[0,0.25,0]];rounded=1;absoluteArcSize=1;arcSize=2;html=1;strokeColor=none;gradientColor=none;shadow=0;dashed=0;fontSize=12;fontColor=#9E9E9E;align=center;verticalAlign=middle;spacing=10;spacingTop=-4;fillColor=#E0F2F1;" vertex="1" parent="1">
          <mxGeometry x="840" y="290" width="160" height="220" as="geometry" />
        </mxCell>
        <mxCell id="ad4-t8fsiWjWlTMB4g6z-448" value="Annex VIII Sec. 1.1" style="rounded=1;fillColor=#0057D8;strokeColor=none;html=1;fontColor=#ffffff;align=center;verticalAlign=middle;fontStyle=0;fontSize=12" vertex="1" parent="1">
          <mxGeometry x="850" y="430" width="140" height="33" as="geometry" />
        </mxCell>
      </root>
    </mxGraphModel>
  </diagram>
</mxfile>
